<svg xmlns="http://www.w3.org/2000/svg" width="400" height="400" viewBox="0 0 400 400">
  <g fill-rule="evenodd">
    <path fill="#0f2960" d="M223.925 90.933c-4.402.884-6.893 2.444-7.371 4.617-.487 2.219.114 2.397 7.354 2.179 8.046-.243 11.22.251 17.497 2.723 5.81 2.288 6.493 2.262 4.994-.188-2.968-4.853-9.765-8.869-15.561-9.193a123 123 0 0 1-4.054-.288c-.775-.077-2.062-.01-2.859.15m-84.542 10.177c-.969.356-2.934 1.063-4.368 1.571-5.022 1.781-9.331 5.354-11.786 9.776-2.546 4.584-1.836 4.795 3.847 1.141 6.71-4.315 11.539-6.14 17.54-6.629 3.495-.285 4.459-.851 4.459-2.62 0-2.675-5.877-4.639-9.692-3.239m91.539 28.211c-7.627 2.066-12.715 6.533-15.716 13.795-2.265 5.482-1.967 7.664.489 3.58 8.959-14.899 30.502-16.611 40.548-3.223 1.63 2.173 4.571 7.308 5.543 9.68 1.199 2.926 1.621 3.008 1.758.341.274-5.328-2.444-11.262-7.815-17.064-5.499-5.94-16.98-9.23-24.807-7.109m-92.42 10.108c-5.827 1.068-6.685 1.333-9.868 3.053-7.892 4.264-12.953 12.087-14.086 21.772-.734 6.267 1.037 9.812 2.1 4.204 4.011-21.159 24.302-30.614 38.292-17.842 4.708 4.298 4.397 5.916-.686 3.567-4.929-2.277-10.498-2.419-12.857-.328l-.956.848 1.649 1.503c2.814 2.566 3.631 5.154 2.46 7.801-1.859 4.202-8.191 3.995-10.47-.342-2.572-4.893-6.222 5.268-4.612 12.838 1.138 5.349 6.96 13.502 7.137 9.993.073-1.458.553-1.482 4.511-.226 4.584 1.455 6.183 1.507 10.243.33 2.285-.662 3.491-.833 4.731-.668 1.654.219 1.674.209 3.3-1.598 4.928-5.482 5.77-13.942 2.366-23.767-.578-1.668-1.051-3.405-1.051-3.859 0-2.008-1.746-5.788-4.276-9.259-3.677-5.043-12.537-9.007-17.927-8.02m91.617 4.448c-2.1 1.058-2.108 1.633-.057 3.684 2.991 2.991 3.254 6.889.62 9.201-2.817 2.474-6.941 1.542-9.331-2.108l-1.154-1.762-.808.759c-5.173 4.859-2.134 22.893 3.726 22.108.843-.114 1.823.06 2.789.492 5.828 2.61 10.886 2.498 16.923-.375l2.283-1.086.718.887c3.231 3.99 7.735-8.94 5.988-17.188-2.241-10.575-14-18.494-21.697-14.612m-42.806 57.777c-.388.22-1.577 1.068-2.643 1.887-3.993 3.063-7.885 4.584-12.688 4.956-5.588.434-5.612 1.865-.187 11.207 3.619 6.232 3.954 6.336 6.364 1.982 2.847-5.145 8.135-8.118 14.44-8.118 1.108 0 3.401-.254 5.097-.564 3.972-.727 5.972-.345 9.641 1.839 3.889 2.314 4.283 2.058 6.354-4.137 2.649-7.921 2.251-8.809-2.949-6.581-5.272 2.259-12.419 1.826-18.678-1.132-4.183-1.978-3.809-1.872-4.751-1.339m-135.33 45.584c-3.728 1.992-4.377 5.395-2.183 11.45 1.474 4.071 15.185 38.611 17.272 43.515l1.501 3.524 3.158-.095c9.433-.282 15.571 5.26 14.196 12.818-.498 2.74-.247 3.687 1.195 4.51 4.089 2.335 5.619 5.61 4.851 10.38-.42 2.606-.404 2.768.492 4.887 1.658 3.921.795 6.787-2.948 9.789l-2.099 1.684.608 1.043c.714 1.224 2.739 2.912 4.128 3.44 2.985 1.135 9.678 2.151 16.216 2.461 6.363.302 18.819 2.255 21.675 3.397 1.01.405 1.894 1.175 2.881 2.511 4.937 6.683 39.454 9.897 74.694 6.955 28.998-2.42 58.025-12.811 62.207-22.267 1.007-2.277 3.105-9.417 3.649-12.418.221-1.213.945-4.609 1.609-7.545 1.766-7.797 1.693-8.51-.955-9.362-3.628-1.168-10.021-11.05-12.981-20.063-5.318-16.197-4.545-33.129 1.987-43.484 1.851-2.935 1.194-3.332-7.759-4.694-7.458-1.135-8.206-1.03-10.39 1.451-2.609 2.964-9.941 17.105-11.682 22.531-1.66 5.175-11.921 22.975-20.722 35.948-7.241 10.673-9.117 12.863-11.022 12.863-1.8 0-2.691.631-4.321 3.058-3.139 4.673-10.475 12.801-11.554 12.801-1.299 0-5.096-4.931-10.625-13.798-.345-.554-1.269-1.187-2.271-1.556-2.874-1.059-5-4.167-9.262-13.545-8.617-18.954-10.456-28.05-8.991-44.472.928-10.41.75-10.502-9.017-4.64-5.258 3.156-5.554 3.095-7.895-1.637-2.849-5.756-6.576-7.921-8.471-4.92-1.981 3.139-6.309 2.101-8.401-2.015-.812-1.598-3.402-2.095-16.083-3.087-10.311-.806-12.805-.923-15.945-.746-9.855.557-11.644.582-12.726.178-2.997-1.119-22.239-1.8-24.016-.85m132.771 18.464c-1.355.854-2.398 2.448-2.719 4.155-.301 1.608-.285 1.614 1.951.755 3.368-1.295 10.342-.572 12.916 1.338 2.723 2.021.725 9.589-3.582 13.57-1.948 1.8-1.965 2.392-.103 3.45 1.234.7 1.693.244 2.718-2.699.744-2.139 1.184-2.738 4.123-5.61 3.714-3.631 3.964-4.327 2.394-6.641-.493-.726-1.506-2.533-2.252-4.014-1.937-3.849-2.243-4.058-6.316-4.327-1.87-.124-4.43-.332-5.69-.462-1.96-.204-2.457-.133-3.44.485m-4.904 7.866c-1.072 1.191-1.254 2.025-.643 2.957 1.128 1.722 1.938.878 1.938-2.016 0-1.928-.246-2.107-1.295-.941m-75.368 10.834c13.075 3.344 24.168 17.057 24.148 29.853-.029 19.208-23.893 20.024-37.74 1.29-13.203-17.863-5.298-35.974 13.592-31.143m136.663 15.634c11.553 5.511 13.478 17.606 4.345 27.306-1.824 1.937-3.207 2.642-6.723 3.422-13.044 2.897-23.278-9.616-18.709-22.872 1.512-4.384 2.36-5.279 7.407-7.818l3.901-1.961 3.171.142c2.903.13 3.464.281 6.608 1.781"/>
    <path fill="#f9a12d" d="M163.142 25.799c-5.094 5.25-8.038 18.615-5.807 26.36 2.128 7.384 0 8.229-7.442 2.953-3.765-2.669-4.544-1.946-4.22 3.919.143 2.596.48 4.392 1.281 6.82 1.53 4.64 1.28 5.118-4.149 7.923-5.494 2.839-5.895 2.821-11.447-.499-17.156-10.258-39.953-17.556-54.933-17.585-9.633-.019-12.445 3.124-13.709 15.323-2.862 27.614 7.001 63.681 22.022 80.529 3.715 4.167 3.674 2.165.519 25.374-1.514 11.144-4.936 16.67-11.029 17.813-3.431.643-2.708 3.206 2.418 8.579 4.467 4.68 4.56 5.577.755 7.26-3.546 1.568-3.427 2.594.816 7.003 3.564 3.705 6.222 5.566 12.146 8.508 5.279 2.622 4.959 2.32 5.791 5.463.445 1.677 6.572 3.877 10.801 3.877 3.148 0 3.501-1.015 1.063-3.053-1.179-.985-1.586-1.577-1.586-2.301 0-1.71-.996-3.586-2.384-4.494-3.29-2.151-3.629-2.843-2.839-5.796.716-2.674-.063-5.14-2.182-6.915-2.688-2.25-2.71-6.171-.063-11.486.762-1.531 1.496-3.259 1.631-3.841.818-3.518 8.717-10.384 11.963-10.398 1.913-.009 3.351-4.151 2.164-6.235-.445-.781-.518-.822-.35-.195.335 1.248-.716.984-1.568-.394-.403-.653-.734-1.71-.734-2.35 0-.639-.089-1.073-.198-.963-1.13 1.129-6.548-8.514-7.452-13.262-2.481-13.047 5.677-34.626 16.461-43.538.561-.463.656-.65.262-.512-2.137.743-2.917-1.856-1.552-5.173 5.629-13.684 24.951-21.949 30.576-13.079 2.707 4.267.773 6.952-5.394 7.488-6.058.526-11.63 2.666-17.909 6.879-2.5 1.678-3.4 2.543-1.313 1.263 12.441-7.628 27.32-6.101 34.491 3.541 7.546 10.147 12.474 31.977 10.722 47.501-1.116 9.888.228 11.109 7.675 6.976l3.94-2.187 6.114-.283c5.037-.234 6.429-.19 7.905.248 2.552.758 4.249.662 6.251-.352 2.296-1.164 2.445-1.839 1.436-6.517-5.406-25.052-1.737-48.661 9.035-58.147 10.865-9.568 32.732-6.996 44.826 5.273 11.867 12.037 17.613 28.381 14.259 40.553-.937 3.398-3.996 6.079-4.527 3.965-.135-.537-.36-1.057-.502-1.156-.141-.099-.5-.537-.799-.973-.502-.737-.559-.411-.781 4.507-.206 4.576-.365 5.61-1.161 7.547-1.041 2.535-.934 3.581.321 3.125 1.224-.445 4.352-.196 7.363.584 7.142 1.851 9.737 3.737 10.896 7.919.372 1.341 1.059 2.845 1.526 3.343 2.439 2.598 2.692 3.769 1.453 6.713-1.106 2.628-1.288 7.169-.372 9.295.83 1.927.464 3.066-1.444 4.491-1.791 1.339-2.592 2.608-2.592 4.108 0 .553-.464 1.737-1.03 2.63-1.23 1.94-1.292 2.276-.936 5.13.329 2.647-.19 3.72-2.202 4.548-1.831.754-2.797 1.748-3.994 4.109-1.859 3.669-.739 4.546 3.86 3.021 2.448-.811 2.939-1.095 7.65-4.429 1.551-1.097 4.564-3.098 6.696-4.446 7.118-4.5 8.438-6.001 7.42-8.437-.785-1.88-.321-2.701 2.923-5.171 2.46-1.872 4.482-3.818 9.615-9.257 2.205-2.335 3.371-1.72 6.644 3.5 1.542 2.46 2.451 4.419 3.223 6.95.591 1.939 1.378 4.363 1.748 5.388s.676 2.532.679 3.348c.003.817.122 1.322.264 1.124 1.234-1.719 3.018-1.713 5.628.018 1.015.673 1.952 1.224 2.082 1.224s.756.396 1.391.881c.636.484 1.238.881 1.34.881.101 0 .994.477 1.984 1.061s2.94 1.365 4.333 1.737c2.064.551 2.76.928 3.766 2.045 3.808 4.229 9.916 3.902 18.675-1.002 6.887-3.855 9.848-6.306 11.457-9.481.498-.982 1.415-2.375 2.039-3.095 1.406-1.625 2.439-3.095 3.174-4.516.311-.601 1.255-1.791 2.099-2.643 3.353-3.391 3.588-4.469 1.336-6.123-1.771-1.3-2.128-1.827-2.128-3.14 0-.977.626-1.627 1.568-1.629.594-.001.525-.121-.389-.679-2.769-1.688-1.017-6.485 2.368-6.485 2.628 0 3.37 3.138 1.246 5.263-1.553 1.552-1.088 1.535.884-.032 2.635-2.095 4.745-1.469 4.685 1.39-.04 1.896-2.72 6.038-8.371 12.931-1.327 1.619-3.13 4.371-4.006 6.116-3.953 7.875-6.363 11.4-10.749 15.727-2.284 2.253-4.15 4.315-4.147 4.581.003.313.097.351.264.11.142-.207 1.448-1.254 2.902-2.329 5.186-3.833 8.59-8.139 12.889-16.31 1.685-3.202 3.257-5.559 5.5-8.242 9.632-11.527 12.369-19.195 8.612-24.122-1.95-2.556-3.385-3.154-6.913-2.878-6.21.486-6.11.625-4.908-6.804 1.69-10.442-7.188-15.404-15.356-8.583-3.196 2.669-3.933 2.476-5.991-1.568-3.071-6.035-9.063-6.951-14.461-2.212-2.465 2.164-4.051 6.253-6.163 15.888-3.111 14.194-5.643 17.626-9.316 12.624-5.336-7.27-11.978-7.502-17.567-.616-1.555 1.917-3.48 2.293-4.828.945-1.092-1.092-.876-1.794 1.553-5.052 2.951-3.958 4.19-6.169 5.278-9.415 1.371-4.089.871-4.831-2.956-4.387-6.644.771-10.586-3.527-13.573-14.802-4.349-16.409-4.212-14.927-1.719-18.7 13.305-20.137 17.541-60.45 9.07-86.322-1.782-5.444-3.661-8.198-6.464-9.475-8.863-4.038-39.582 9.254-57.268 24.779-4.256 3.736-4.415 3.756-12.994 1.571-8.283-2.109-9.146-2.522-10.758-5.149-6.001-9.771-12.492-15.565-19.828-17.697-3.577-1.04-3.888-.217-1.557 4.124 2.832 5.274 3.303 8.106 1.427 8.577-.862.216-3.214-.872-13.069-6.043-11.197-5.876-16.65-11.629-19.192-20.247-1.214-4.119-1.646-4.346-3.883-2.042m136.982 20.56c3.545 2.205 4.051 16.939.846 24.621-1.578 3.784-4.646 11.278-5.642 13.785-.798 2.009-.912 4.048-.262 4.698.305.305.448 1.867.464 5.092.021 4.349.101 4.881 1.233 8.176 1.491 4.342 1.617 9.278.358 14.065-1.28 4.867-.927 6.552 1.37 6.552 1.832 0 2.011.683 1.036 3.943-2.353 7.859-5.416 8.981-7.357 2.695-.813-2.63-2.588-5.422-4.783-7.519-.811-.775-1.694-2.044-1.962-2.819-.268-.776-.574-1.489-.68-1.586-.28-.256-1.234-3.301-1.131-3.613.047-.145-.082-.264-.287-.264s-.275-.159-.155-.352c.12-.194.046-.353-.163-.353s-.571-.436-.803-.969-.776-1.524-1.208-2.203c-1.494-2.34-.517-4.253 2.417-4.733l1.519-.248-1.057-.454c-1.714-.737-4.598-3.573-6.18-6.078-.809-1.282-2.922-3.955-4.695-5.94-3.567-3.994-5.865-7.553-5.865-9.082 0-1.619 2.322-6.211 3.9-7.713l1.425-1.356-1.431.747c-3.871 2.017-3.411-1.856.883-7.442 11.91-15.492 23.638-24.493 28.21-21.65m-136.772 7.914c4.361 4.621 4.836 6.563 1.518 6.216-3.602-.376-3.936-.813-4.781-6.256-.199-1.283-.281-2.757-.181-3.277l.181-.945.883 1.338c.486.736 1.557 2.052 2.38 2.924M77.509 65.934c3.531 1.349 10.802 5.785 14.473 8.831 11.77 9.764 15.224 13.384 15.718 16.473.269 1.683-.5 1.927-2.905.922l-1.262-.527 1.298 1.436c3.822 4.231 3.411 7.758-1.829 15.722-1.173 1.782-2.551 4.336-3.063 5.675-1.658 4.339-3.725 7.16-6.018 8.213l-1.41.647 1.806-.209c3.426-.397 4.18 1.682 2.103 5.805-1.141 2.266-4.085 10.393-4.085 11.277 0 .229-.467 1.407-1.038 2.619-.57 1.212-1.28 3.376-1.577 4.807-.888 4.288-1.925 5.149-4.048 3.362-2.244-1.888-4.447-7.973-2.941-8.124.243-.024.7-.063 1.017-.088 1.166-.089-.343-5.705-2.71-10.088-1.537-2.845-3.339-8.469-3.727-11.63a36 36 0 0 0-.535-2.995c-.2-.873-.428-2.855-.508-4.406-.252-4.891-.514-6.28-1.645-8.722-.606-1.308-1.212-2.379-1.348-2.379-.689 0-2.536-6.844-2.95-10.925-.205-2.023-.369-3.073-1.046-6.696a495 495 0 0 0-.728-3.701c-.657-3.291-.741-10.67-.148-13.023.953-3.784 3.493-4.419 9.106-2.276m75.3 6.971c6.516 4.269 5.765 6.779-1.489 4.975-5.85-1.455-6.512-2.731-2.722-5.242 2.034-1.347 1.716-1.367 4.211.267m-20.752 3.647c2.625 1.226 2.186 3.091-.862 3.663-1.535.288-2.197-.08-2.984-1.657-1.539-3.082-.082-3.841 3.846-2.006m154.007 8.067c3.391 1.303 4.431 3.515 2.662 5.662-.972 1.18-.502.972 1.23-.546 1.725-1.512.086-4.135-3.307-5.291-2.352-.802-2.787-.672-.585.175m15.387 2.819c-.122.764-.36 1.473-.528 1.577-.365.226-.418-3.852-.056-4.214.446-.446.812 1.209.584 2.637m-69.453.835c7.777 1.648 17.841 9.755 17.975 14.48.073 2.577-1.513 2.875-5.499 1.034-7.841-3.623-12.346-4.61-19.276-4.222-9.404.526-10.165.362-10.753-2.317-1.382-6.291 7.878-11.025 17.553-8.975M114.875 93.2c.974 1.037.553 2.327-1.413 4.333-1.078 1.1-2.801 1.575-2.801.772 0-.205-.147-.282-.327-.171-.322.199-.459-.112-.874-1.985-.205-.923.47-2.052 1.226-2.052.18 0 .327-.371.327-.824 0-1.253 2.705-1.304 3.862-.073m79.208 3.011c.101.388.392.705.646.705.621 0 1.571 1.974 1.571 3.264 0 .78-.133.99-.529.838-.36-.138-.529.019-.529.491 0 .381-.173.694-.386.694-.212 0-.823.311-1.357.691-2.995 2.133-8.477 2.091-8.477-.065 0-.858 1.689-3.093 2.337-3.093.271 0 .767-.133 1.104-.296l1.669-.804c.668-.322 1.102-.83 1.179-1.379.247-1.763 2.374-2.566 2.772-1.046m93.399 3.934c1.771 1.925 1.763 4.158-.016 4.875-.629.253-.654.314-.137.332 2.713.096 2.765-3.977.072-5.629-.622-.382-.613-.332.081.422m-199.593 2.848c-3.413 2.651-3.345 5.344.172 6.818 1.693.709 1.86.587.313-.229-2.8-1.479-3.005-3.585-.585-6.006 1.555-1.554 1.586-1.738.1-.583m.876 16.889c-.365 1.731 1.48 4.263 2.422 3.322.114-.115-.017-.211-.291-.214-1.021-.011-1.525-.696-1.726-2.349-.169-1.389-.242-1.527-.405-.759m201.474 17.475c.172.83.328 1.085.421.686.167-.718 1.146-.181 1.146.629 0 .24.538 1.608 1.195 3.04.657 1.433 1.311 3.313 1.453 4.178s.394 1.816.559 2.114c.602 1.089 2.011 4.825 2.596 6.886.33 1.163 1.389 3.905 2.355 6.093 2.508 5.688 2.112 6.884-1.711 5.156-7.525-3.401-7.242-2.927-7.667-12.835-.121-2.811-.356-5.665-.522-6.344-.668-2.721-.784-5.992-.205-5.769.591.227.723-.24.216-.768-.369-.385-.674-4.389-.334-4.388.123 0 .348.595.498 1.322M92.586 163.139c.387.862.482 1.807.335 3.348-.113 1.181-.07 5.081.095 8.667.358 7.772.325 7.879-3.688 11.894-3.988 3.992-4.582 3.341-2.976-3.259.377-1.551.934-4.564 1.238-6.696.304-2.133.774-4.67 1.044-5.639s.651-3.031.847-4.582c.383-3.029 1.001-4.75 1.708-4.755.243-.001.453-.28.469-.619.021-.481.067-.501.208-.088.099.29.423 1.069.72 1.729m261.281.775c1.752 1.875 1.282 5.189-.997 7.035-1.574 1.276-.123.558 3.181-1.573 1.687-1.089 3.068-2.131 3.068-2.317 0-1.346 2.221-1.103 2.805.306.774 1.87-1.96 12.509-3.565 13.868-1.679 1.423-2.764.35-2.764-2.732 0-2.578-.016-2.589-3.342-2.587-1.842.001-2.21-.116-2.908-.927-1.051-1.222-1.013-1.475.347-2.304l1.145-.698-1.084-.001c-2.198-.003-3.426-2.574-2.614-5.473.975-3.483 4.595-4.881 6.728-2.597m18.755 3.176c2.573 1.315 2.692 4.139.286 6.797-.932 1.031-.639.979 1.043-.183 3.679-2.543 7.441 3.264 5.247 8.099-2.368 5.219-5.387 9.084-6.816 8.725-1.442-.362-1.519-1.883-.224-4.448 1.61-3.188 1.416-3.871-1.365-4.823-4.89-1.674-5.864-4.965-1.63-5.509l1.057-.136-1.09-.053c-1.491-.072-2.238-1.014-2.293-2.894-.115-3.965 3.022-6.989 5.785-5.575m-58.337 4.855c-.17 1.773-2.749 6.407-5.443 9.783-2.795 3.502-2.251 6.13 1.486 7.176 3.366.943 3.354 1.456-.138 5.855-2.974 3.746-6.44 7.007-9.871 9.285-2.75 1.827-3.013 2.339-2.722 5.3l.234 2.367-1.809 1.626c-3.654 3.285-10.788 7.056-11.784 6.229-1.379-1.144-.72-5.327 1.222-7.757.968-1.211 1.917-2.777 2.108-3.481s1.073-2.152 1.959-3.218 2.154-2.89 2.815-4.053c.662-1.163 2.557-3.584 4.211-5.38 1.653-1.796 3.03-3.541 3.058-3.877.119-1.42-.145-3.217-.782-5.317-1.182-3.9.274-6.225 6.613-10.56 1.126-.77 2.523-1.913 3.104-2.541 3.13-3.38 5.995-4.098 5.739-1.437m-201.554 2.769c-.073 1.212 0 2.203.162 2.203.161 0 .227.198.145.44s.103.634.411.87c1.251.959 1.386.327.531-2.478-1.012-3.315-1.109-3.395-1.249-1.035m82.59 5.923c-1.079.756-.983 1.22.186.89 1.064-.3 1.886-.133 2.285.464.41.614.328-.43-.095-1.221-.441-.824-1.32-.873-2.376-.133m-18.317 2.866c.34.088.895.088 1.234 0 .339-.089.062-.161-.617-.161-.678 0-.956.072-.617.161m8.111 1.419c.536.082 1.329.079 1.762-.004.434-.084-.005-.15-.974-.148s-1.324.071-.788.152m171.451 8.954c5.211 2.523 6.002 6.653 1.274 6.653-2.642 0-5.797.73-8.511 1.969-6.126 2.798-8.072-2.419-2.443-6.551 4.103-3.012 6.623-3.551 9.68-2.071m-276.38 4.651c1.352.644 3.774 1.626 5.385 2.182 5.63 1.948 6.02 3.557 2.067 8.538-.956 1.205-2.086 2.24-2.578 2.364-2.263.568 1.276 3.514 5.915 4.924 3.459 1.051 4.779 2.343 5.253 5.139.148.872.381 2.164.519 2.871 1.021 5.25-15.748-3.364-19.184-9.854-.604-1.142-.092-1.619 2.344-2.182 2.858-.66 2.923-.739 2.412-2.92-.608-2.594-1.022-3.242-4.11-6.417-5.361-5.513-4.431-7.697 1.977-4.645m285.359 2.883c3.827 4.622 3.247 11.24-1.339 15.277-2.926 2.576-5.926 2.746-10.679.607-1.48-.666-3.457-1.403-4.395-1.637-6.86-1.714-9.861-12.923-3.06-11.43.543.12 1.632-.04 2.51-.367 5.562-2.073 6.794-2.273 10.688-1.73 1.293.18 1.834.117 2.115-.248 1.566-2.032 2.757-2.167 4.16-.472m-42.343 17.515c-.396 7.847 10.063 18.791 20.801 21.767 2.975.824 3.531.742 1.115-.164-3.454-1.296-5.746-2.688-8.042-4.886-2.593-2.48-2.644-2.867-.422-3.217 6.551-1.033 4.306-6.849-3.336-8.645-1.025-.241-2.293-.655-2.816-.92-1.26-.637-2.251-.607-3.455.105-1.312.774-2.575-.564-3.546-3.756-.162-.533-.281-.646-.299-.284m-222.963 9.999c.737.737.7 1.208-.094 1.208-.357 0-.829-.396-1.05-.881-.479-1.05.221-1.25 1.144-.327m-33.03 80.81c-4.183 4.385-4.815 8.321-2.251 14.002 1.086 2.404 1.339 3.449 1.62 6.684.303 3.494.468 4.103 1.856 6.84l1.522 3.004.103-2.347c.126-2.849.116-2.844 4.126-1.983 9.005 1.932 16.032-1.746 14.31-7.491-1.128-3.766-5.525-3.979-14.165-.688-5.446 2.074-5.927 1.937-6.985-1.994-.754-2.803-.377-3.107 4.432-3.578 4.904-.48 7.436-1.158 8.892-2.383 5.798-4.879 1.593-11.768-7.367-12.068l-4.054-.136z"/>
    <path fill="#f8f2f0" d="M0 200v200h400V0H0zM167.204 21.938c.686.605 1.018 1.425 1.4 3.459 1.759 9.374 6.656 14.471 21.084 21.944 8.496 4.401 9.513 3.834 5.05-2.818-2.94-4.383-1.616-6.859 3.097-5.795 8.863 2 16.28 8.222 23.253 19.505.973 1.574 2.037 2.034 8.932 3.866 7.881 2.094 7.864 2.095 11.58-1.012 11.398-9.527 23.534-16.724 36.392-21.581 21.595-8.159 27.653-5.911 32.2 11.948 6.807 26.738 2.739 60.314-10.001 82.54-2.192 3.824-2.202 3.641.753 14.728 3.805 14.274 6.255 17.383 12.768 16.202 5.324-.966 6.473 1.44 3.997 8.366-1.758 4.919-1.995 4.571 3.084 4.537 5.482-.038 6.713.463 10.349 4.207 4.184 4.307 4.831 3.491 7.53-9.493 1.576-7.582 3.029-12.179 4.66-14.749 5.041-7.944 14.852-8.241 19.5-.591 1.475 2.429 1.964 2.553 3.904.989 8.705-7.021 18.286-1.641 18.286 10.268v5.11l3.172.178c8.953.502 12.578 8.564 8.222 18.283-1.394 3.111-4.842 8.183-8.707 12.808-2.409 2.883-3.765 4.953-5.717 8.725-3.26 6.301-7.085 11.428-11.019 14.768-3.233 2.745-3.364 2.998-3.368 6.536-.004 3.414-.917 5.548-4.985 11.654-2.067 3.101-4.195 6.511-4.73 7.577-8.294 16.525-21.857 32.522-34.459 40.643-9.76 6.29-26.618 14.197-38.845 18.219-3.149 1.036-4.282 2.137-4.559 4.429-.651 5.39-5.057 28.82-5.892 31.334-3.371 10.146-24.268 19.581-53.166 24.005-25.689 3.932-58.562 3.218-80.539-1.75-7.501-1.696-9.299-2.757-10.499-6.199-.831-2.385-1.228-2.544-10.173-4.076-8.109-1.388-8.504-1.362-12.905.848-16.299 8.186-34.832 2.688-42.516-12.612-2.894-5.762-3.46-9.979-1.783-13.284 1.134-2.236 1.229-6.565.214-9.814-2.399-7.686-2.012-12.078 1.45-16.426 1.874-2.353 2.515-.226-8.049-26.733-12.869-32.296-12.8-31.889-6.499-38.43 3.654-3.792 6.457-4.385 16.057-3.397 3.101.319 9.841.959 14.978 1.421 5.136.463 14.047 1.27 19.801 1.794 11.133 1.014 12.805.984 11.726-.209-.343-.379-.78-.688-.971-.688s-1.317-.607-2.5-1.349-3.422-1.87-4.972-2.506c-7.913-3.246-10.873-5.266-11.315-7.723-.323-1.794-.574-2.024-4.173-3.828-8.029-4.023-16.054-11.857-16.054-15.671 0-1.306 1.239-2.676 2.859-3.162 2.511-.752 2.43-1.31-.687-4.706-6.23-6.787-6.529-10.373-.97-11.61 5.465-1.216 8.009-5.2 9.35-14.643 3.159-22.26 3.167-21.306-.204-25.43-14.347-17.555-23.328-46.976-22.575-73.954.552-19.761 4.092-25.205 16.31-25.088 15.37.149 39.962 7.954 55.896 17.742 4.588 2.818 5.202 2.889 8.84 1.013 4.197-2.163 4.747-2.775 4.201-4.674-1.587-5.514-1.83-6.875-1.804-10.106.053-6.641 2.285-8.744 5.885-5.543 5.013 4.457 6.334 4.205 5.541-1.059-1.756-11.65 3.413-26.675 10.099-29.354 1.174-.47 1.219-.462 2.216.417m57.466 84.454c-8.825 2.564-13.848 8.387-16.537 19.167-2.7 10.826-1.493 18.333 1.76 10.939.272-.617.896-1.727 1.386-2.467.491-.739 1.088-1.647 1.327-2.019 2.241-3.485 7.768-8.792 10.341-9.93 5.968-2.639 16.162-2.532 19.568.205.83.667 1.725 1.061 2.412 1.061 2.868 0 12.67 7.184 15.69 11.5 5.36 7.66 7.468 6.145 4.266-3.068-2.092-6.017-4.525-10.062-9.353-15.547-6.919-7.859-21.586-12.537-30.86-9.841m-85.815 9.557c-14.745 2.17-27.882 16.818-28.444 31.716-.21 5.547.879 6.008 3.723 1.577 1.795-2.796 4.837-6.383 7.725-9.107 1.022-.965 2.172-2.26 2.554-2.878s1.36-1.582 2.174-2.142c.815-.56 1.864-1.37 2.333-1.801 1.114-1.023 3.591-1.93 8.432-3.087l3.935-.941 4.076.771c4.45.841 9.063 3.613 11.571 6.954.543.723 1.815 2.187 2.826 3.253s2.293 2.613 2.849 3.436c4.43 6.564.172-11.511-4.432-18.816-3.883-6.162-12.16-9.989-19.322-8.935m92.687 8.161c-3.389.952-2.386 1.965 1.369 1.383 1.357-.211 3.229-.394 4.161-.408s2.012-.151 2.399-.305c2.024-.807-5.253-1.421-7.929-.67m4.78 14.449c-3.193.437-3.054.824.601 1.669 11.885 2.746 18.098 11.782 18.018 26.204-.041 7.476.13 7.876 1.891 4.405 2.653-5.231 3.368-12.85 1.584-16.882-4.748-10.735-13.187-16.614-22.094-15.396M135.86 149.636c-8.732 2.145-15.888 11.742-16.136 21.642-.146 5.793 1.121 9.232 5.562 15.1 4.203 5.553 6.635 4.399 3.828-1.817-5.91-13.088-2.042-26.487 9.614-33.303 3.339-1.953 1.868-2.785-2.868-1.622m89.532.623c-1.924 1.923-.689 5.16 1.968 5.16 3.238 0 3.136-5.073-.118-5.836-.733-.172-1.157-.018-1.85.676m-87.36 9.324c-2.294 2.535.765 6.355 3.418 4.268 1.88-1.479.702-4.908-1.685-4.908-.667 0-1.398.27-1.733.64m128.4 15.962c-1.066.181-3.287.745-4.934 1.252-1.648.508-3.789.95-4.758.983-3.393.117-3.708.202-5.021 1.367-7.447 6.607-17.406 8.336-27.93 4.851-2.423-.802-5.953-1.85-7.843-2.329-1.891-.478-4.745-1.527-6.342-2.33-5.222-2.625-7.191-1.815-8.18 3.368-.688 3.604-1.499 4.78-5.544 8.033-6.082 4.892-5.988 6.932.42 9.091 6.001 2.022 15.675-1.073 18.211-5.826 1.522-2.852 2.21-3.346 4.647-3.336 7.616.029 12.529 10.106 5.564 11.413-2.078.389-5.978 5.912-8.511 12.051-4.67 11.319-9.931 18.875-15.154 21.764-11.672 6.458-23.166 1.802-31.197-12.637-3.123-5.615-10.721-13.511-14.794-15.373-.872-.399-1.935-.893-2.362-1.097-3.302-1.579 1.588-10.279 5.778-10.279 1.066 0 1.538.33 3.575 2.497 3.555 3.781 6.286 4.765 11.267 4.061 10.66-1.508 12.448-6.701 3.727-10.827-3.265-1.544-4.704-3.145-5.224-5.81-.971-4.975-2.787-4.902-9.008.359-5.48 4.635-14.036 8.109-19.936 8.095-1.738-.005-10.907-2.207-13.896-3.338-1.158-.438-2.014-.529-3.172-.338-1.753.29-5.466.357-9.521.172-7.446-.339-13.226 9.036-9.116 14.786 3.108 4.347 5.244 6.641 6.591 7.078.828.269 2.19 1.348 3.764 2.98 2.52 2.612 2.538 2.622 7.174 3.886q1.887.515 3.67 2.075c1.258 1.1 2.31 1.678 3.575 1.964.986.222 2.292.628 2.903.902s1.351.498 1.645.498 1.423.757 2.508 1.683c1.483 1.265 2.474 1.799 3.993 2.15 1.112.256 2.305.767 2.651 1.136.347.368.958.669 1.357.669s1.226.218 1.836.484 2.221.681 3.578.923c2.257.402 3.933.944 5.546 1.795.336.177.867.323 1.18.323s1.068.218 1.679.484c2.5 1.091 4.467 1.431 8.511 1.472 4.875.051 7.23.621 10.517 2.547 7.598 4.453 17.297 3.691 25.417-1.997 2.498-1.75 6.634-3.087 7.844-2.535 1.94.884 6.594-.549 10.374-3.193.514-.36 1.174-.655 1.465-.655s1.377-.689 2.413-1.531 2.516-1.725 3.292-1.963c2.303-.706 3.065-1.159 5.286-3.145 1.163-1.04 2.432-2.036 2.82-2.214 1.362-.626 10.601-6.803 13.039-8.718.969-.762 2.317-1.622 2.996-1.913s2.311-1.497 3.629-2.681 2.625-2.152 2.906-2.152 1.661-1.077 3.067-2.393c2.534-2.371 3.25-2.941 5.464-4.349.63-.401 1.145-.951 1.145-1.223 0-.271.156-.493.345-.493.372 0 1.77-2.527 1.77-3.199 0-.224.594-1.216 1.32-2.205 1.3-1.771 1.323-1.859 1.53-5.863.116-2.235.426-4.815.69-5.734 1.044-3.629-4.32-6.52-10.236-5.516m44.079 23.945c-1.416 1.561-3.706 3.808-5.089 4.994-3.386 2.904-3.514 3.108-3.044 4.853.714 2.652-2.052 5.814-9.162 10.471-1.648 1.079-3.789 2.701-4.758 3.604-2.495 2.325-7.722 5.874-12.863 8.734-10.094 5.614-12.444 6.807-18.228 9.249-8.927 3.768-8.737 4.741 1.135 5.826 4.039.444 6.308.944 7.908 1.743 2.389 1.194 3.182 1.292 6.047.747 2.645-.502 10.009-.842 10.373-.479.307.307-2.085 2.02-6.53 4.678-14.205 8.495-16.48 11.938-15.725 23.799.463 7.261 2.011 10.203 5.827 11.071 2.553.58 2.733.559 5.316-.623 1.192-.546 2.373-.737 4.758-.77 2.959-.04 3.361-.138 5.991-1.46 1.551-.779 3.692-1.716 4.758-2.08s3.312-1.578 4.992-2.696c1.679-1.118 3.178-2.032 3.331-2.032.876 0 8.138-3.994 11.375-6.256 1.179-.823 2.233-1.497 2.343-1.497.691 0 5.848-4.373 8.98-7.616 6.249-6.468 7.658-8.665 8.004-12.475.238-2.62.355-2.71 3.726-2.875l2.751-.134 1.574-1.643c1.329-1.387 1.889-1.703 3.593-2.032 3.376-.652 3.604-.717 3.604-1.032 0-.167-1.943-1.562-4.317-3.1-12.54-8.122-18.799-18.337-16.693-27.243.785-3.316-1.929-11.464-5.077-15.242-1.534-1.842-1.978-1.704-4.9 1.516m-172.206 52.95c-.243.633 1.934 5.499 2.766 6.182 1.221 1.002 7.657-3.261 6.568-4.35-1.139-1.139-9.008-2.684-9.334-1.832m69.308 14.315c-4.072.403-4.593 1.577-2.385 5.371.988 1.699 4.111 9.515 4.111 10.29 0 1.077-.938 1.38-2.795.904-2.363-.605-3.108-.219-5.305 2.749-2.896 3.912-2.924 4.658-.7 18.514 1.922 11.971 2.625 12.959 5.81 8.161a186 186 0 0 1 3.176-4.579c2.452-3.417 11.949-18.533 14.259-22.694 3.35-6.035 3.438-7.335.465-6.889-.835.125-1.518.132-1.518.016 0-.477 1.571-3.266 2.519-4.47 1.29-1.639 2.152-3.688 1.894-4.502-.759-2.39-10.27-3.789-19.531-2.871m-37.911 1.126c-2.192.32-6.012 1.467-7.67 2.305-1.095.554-1.829 1.812-2.177 3.735-.132.727-.391 1.321-.576 1.321-4.294 0-.63 16.304 7.366 32.776 3.984 8.205 3.892 8.251 8.207-4.078 5.646-16.135 5.505-15.405 3.725-19.295-1.097-2.395-2.018-2.776-4.453-1.843-3.053 1.171-2.983 1.181-2.742-.368.119-.757 1.491-3.947 3.051-7.089 4.047-8.152 3.704-8.692-4.731-7.464m-56.154 32.939c-.436.306-1.919 2.249-3.295 4.317-4.911 7.386-6.062 7.871-10.582 4.458-2.512-1.896-3.758-2.283-4.092-1.27-.366 1.107 8.501 8.503 10.193 8.503 1.727 0 10.528-12.212 10.528-14.608 0-1.782-1.278-2.432-2.752-1.4m116.232 3.483c-1.808.95-4.023 3.101-3.82 3.709.082.245.694-.041 1.537-.719.771-.62 2.662-1.742 4.202-2.492l2.801-1.365-1.567.017c-.939.009-2.204.35-3.153.85"/>
    <path fill="#e35c28" d="M296.564 45.803c-5.297 1.258-15.861 10.774-24.65 22.206-4.612 6-4.754 9.522-.285 7.081 9.331-5.095 12.085-3.96 8.3 3.421-1.997 3.892-1.904 4.338.988 4.767 5.853.87 8.928 2.224 9.639 4.244.483 1.374.085 1.859-3.432 4.191-4.927 3.267-5.039 3.882-1.234 6.78 4.874 3.711 4.968 6.868.205 6.89-5.102.023-7.034 1.89-5.097 4.925.432.679.976 1.67 1.208 2.203s.593.969.803.969c.209 0 .283.159.163.353s-.05.352.155.352.334.119.287.264c-.103.312.851 3.357 1.131 3.613.106.097.412.81.68 1.586.268.775 1.151 2.044 1.962 2.819 2.195 2.097 3.97 4.889 4.783 7.519 1.941 6.286 5.004 5.164 7.357-2.695.975-3.26.796-3.943-1.036-3.943-2.297 0-2.65-1.685-1.37-6.552 1.259-4.787 1.133-9.723-.358-14.065-1.132-3.295-1.212-3.827-1.233-8.176-.016-3.225-.159-4.787-.464-5.092-.65-.65-.536-2.689.262-4.698.996-2.507 4.064-10.001 5.642-13.785 1.628-3.9 2.161-7.099 2.09-12.541-.126-9.741-2.145-13.669-6.496-12.636m-136.656 5.153c-.1.52-.018 1.994.181 3.277.845 5.443 1.179 5.88 4.781 6.256 3.318.347 2.843-1.595-1.518-6.216-.823-.872-1.894-2.188-2.38-2.924l-.883-1.338zM71.305 64.744c-3.033.569-4.353 8.476-2.754 16.489.31 1.551.637 3.216.728 3.701.677 3.623.841 4.673 1.046 6.696.414 4.081 2.261 10.925 2.95 10.925.136 0 .742 1.071 1.348 2.379 1.131 2.442 1.393 3.831 1.645 8.722.08 1.551.308 3.533.508 4.406.199.872.44 2.22.535 2.995.388 3.161 2.19 8.785 3.727 11.63 2.367 4.383 3.876 9.999 2.71 10.088-.317.025-.774.064-1.017.088-1.506.151.697 6.236 2.941 8.124 2.123 1.787 3.16.926 4.048-3.362.297-1.431 1.007-3.595 1.577-4.807s1.038-2.39 1.038-2.619c0-.884 2.944-9.011 4.085-11.277 2.301-4.568 1.451-6.098-3.176-5.722-2.696.218-2.995.177-3.684-.512-1.618-1.619-1.055-3.617 2.043-7.254 2.64-3.098 2.446-3.558-2.17-5.142-6.801-2.335-5.106-6.664 3.783-9.662 4.036-1.362 4.138-1.717 1.452-5.041-5.393-6.674-1.547-8.898 7.818-4.52 4.548 2.126 5.532 2.158 5.214.169-.494-3.089-3.948-6.709-15.718-16.473-7.118-5.906-17.024-10.706-20.677-10.021m77.293 7.894c-3.79 2.511-3.128 3.787 2.722 5.242 7.254 1.804 8.005-.706 1.489-4.975-2.495-1.634-2.177-1.614-4.211-.267m-20.58 3.01c-.925.381.072 3.665 1.352 4.458 1.429.885 4.839-.757 4.406-2.122-.367-1.154-4.528-2.843-5.758-2.336m93.542 12.799c-5.856 1.871-9.141 7.682-6.007 10.628 1.001.94 1.309.956 9.645.49 6.93-.388 11.435.599 19.276 4.222 6.55 3.026 7.706-.51 2.189-6.694-6.629-7.431-17.35-11.123-25.103-8.646m9.278 2.624c5.796.324 12.593 4.34 15.561 9.193 1.499 2.45.816 2.476-4.994.188-6.277-2.472-9.451-2.966-17.497-2.723-5.932.178-6.444.145-6.994-.463-.872-.964-.384-2.545 1.24-4.012 1.757-1.588 5.82-2.751 8.63-2.471.775.077 2.6.207 4.054.288m-119.825 2.202c0 .453-.147.824-.327.824-.756 0-1.431 1.129-1.226 2.052.415 1.873.552 2.184.874 1.985.18-.111.327-.034.327.171 0 .803 1.723.328 2.801-.772 1.966-2.006 2.387-3.296 1.413-4.333-1.157-1.231-3.862-1.18-3.862.073m27.176 5.047c-6.671 1.803-12.046 5.767-16.258 11.988-5.468 8.078-3.784 11.962 2.994 6.908 6.909-5.152 13.008-7.7 19.848-8.294 4.899-.426 6.416-1.468 6.416-4.407 0-4.987-6.322-8-13-6.195m6.332 2.679c6.308 1.435 6.373 5.459.095 5.97-6.001.489-10.83 2.314-17.54 6.629-5.683 3.654-6.393 3.443-3.847-1.141 2.455-4.422 6.764-7.995 11.786-9.776a498 498 0 0 0 4.368-1.571c2.169-.796 2.129-.795 5.138-.111m90.996 27.542c.927.073 2.354.072 3.172-.002.818-.073.06-.133-1.685-.132-1.744.001-2.413.062-1.487.134m-5.544.635c-8.051 2.209-16.256 11.138-16.642 18.109l-.108 1.966.5-1.938c2.43-9.423 8.406-15.665 17.199-17.97 1.407-.368 2.162-.664 1.677-.658s-1.666.228-2.626.491m15.539.995c8.563 3.039 15.576 10.529 17.545 18.742.702 2.926.642 6.737-.103 6.58-.362-.077-.42.144-.234.881.27 1.068 1.243 6.456 1.244 6.886.002.757.812.097 1.292-1.053 2.922-6.994-3.894-22.997-12.19-28.618-3.114-2.11-8.907-4.663-10.396-4.581-.209.011 1.07.535 2.842 1.163m44.123 7.89c.065 1.115.263 2.178.44 2.362.507.528.375.995-.216.768-.579-.223-.463 3.048.205 5.769.166.679.401 3.533.522 6.344.425 9.908.142 9.434 7.667 12.835 3.823 1.728 4.219.532 1.711-5.156-.966-2.188-2.025-4.93-2.355-6.093-.585-2.061-1.994-5.797-2.596-6.886-.165-.298-.417-1.25-.559-2.114-.142-.865-.796-2.745-1.453-4.178s-1.195-2.8-1.195-3.04c0-.81-.979-1.347-1.146-.629-.093.399-.249.144-.421-.686-.409-1.979-.74-1.594-.604.704m-154.481 1.667c-2.315.595-1.347.602 1.762.014 1.578-.299 2.023-.467 1.234-.467-.679 0-2.027.204-2.996.453m6.961-.278a2.9 2.9 0 0 0 1.233 0c.339-.089.062-.161-.617-.161-.678 0-.956.072-.616.161m3.788.766c6.573 2.165 11.824 7.229 14.118 13.617.461 1.284.638 1.523.655.881.127-5.014-9.025-13.841-15.478-14.929-.789-.133-.535.022.705.431m-18.245 2.399c-11.331 6.4-17.836 23.766-13.08 34.918 1.218 2.855 1.722 2.026 1.716-2.819-.003-2.843-.119-4.138-.338-3.792-1.084 1.716-1.924-2.261-1.408-6.668 1.108-9.469 6.15-17.403 13.734-21.612 1.648-.915 2.837-1.665 2.643-1.668s-1.664.736-3.267 1.641m-36 18.883c-.016.339-.226.618-.469.619-.707.005-1.325 1.726-1.708 4.755-.196 1.551-.577 3.613-.847 4.582s-.74 3.506-1.044 5.639c-.304 2.132-.861 5.145-1.238 6.696-1.606 6.6-1.012 7.251 2.976 3.259 4.013-4.015 4.046-4.122 3.688-11.894-.165-3.586-.208-7.486-.095-8.667.147-1.541.052-2.486-.335-3.348a28 28 0 0 1-.72-1.729c-.141-.413-.187-.393-.208.088m267.529 5.498c-1.312 1.39-5.765 4.181-8.01 5.021-2.251.842-2.821 1.419-2.322 2.351.651 1.215 1.397 1.549 3.462 1.547 3.254-.004 3.278.015 3.278 2.586 0 2.261.51 3.349 1.572 3.349 2.073 0 6.012-12.104 4.731-14.538-.838-1.591-1.44-1.661-2.711-.316m-48.017 4.234c-.861.556-2.042 1.524-2.624 2.152-.581.628-1.978 1.771-3.104 2.541-6.339 4.335-7.795 6.66-6.613 10.56.637 2.1.901 3.897.782 5.317-.028.336-1.405 2.081-3.058 3.877-1.654 1.796-3.549 4.217-4.211 5.38-.661 1.163-1.928 2.987-2.815 4.053-.886 1.066-1.768 2.514-1.959 3.218s-1.14 2.27-2.108 3.481c-1.942 2.43-2.601 6.613-1.222 7.757.996.827 8.13-2.944 11.784-6.229l1.809-1.626-.234-2.367c-.291-2.961-.028-3.473 2.722-5.3 3.431-2.278 6.897-5.539 9.871-9.285 3.492-4.399 3.504-4.912.138-5.855-3.737-1.046-4.281-3.674-1.486-7.176 6.04-7.569 7.418-13.778 2.328-10.498m63.341 2.229c-2.242 1.311-4.862 2.4-5.799 2.411-3.903.046-2.437 3.841 2.081 5.387 2.781.952 2.975 1.635 1.365 4.823-1.295 2.565-1.218 4.086.224 4.448 1.429.359 4.448-3.506 6.816-8.725 2.032-4.477-1.265-10.345-4.687-8.344m-178.916 8.055c-.485.138-2.585.983-4.667 1.879-4.262 1.834-5.051 1.919-8.64.924-8.168-2.263-10.894 2.634-3.366 6.048 1.29.585 3.368 1.763 4.616 2.618 2.98 2.04 3.444 1.999 6.326-.563 1.311-1.165 3.406-2.869 4.657-3.789 4.414-3.242 5.174-8.28 1.074-7.117m191.466 7.867c-.816.65-2.244 1.386-3.172 1.638-2.1.568-2.567.923-2.567 1.947 0 1.342.348 1.861 2.128 3.167 2.252 1.654 2.017 2.732-1.336 6.123-.844.852-1.788 2.042-2.099 2.643-.735 1.421-1.768 2.891-3.174 4.516-.624.72-1.541 2.113-2.039 3.095-1.609 3.175-4.57 5.626-11.457 9.481-8.759 4.904-14.867 5.231-18.675 1.002-1.006-1.117-1.702-1.494-3.766-2.045-1.393-.372-3.343-1.153-4.333-1.737s-1.883-1.061-1.984-1.061c-.102 0-.704-.397-1.34-.881-.635-.485-1.261-.881-1.391-.881s-1.08-.56-2.11-1.244c-2.775-1.843-4.975-1.62-5.894.597-1.32 3.188 1.03 8.502 3.195 7.224 1.204-.712 2.195-.742 3.455-.105.523.265 1.791.679 2.816.92 7.642 1.796 9.887 7.612 3.336 8.645-2.222.35-2.171.737.42 3.216 5.532 5.292 13.491 7.434 20.073 5.401 3.791-1.171 4.618-2.276 6.587-8.795.777-2.575.903-2.748 4.887-6.696 4.314-4.274 6.764-7.87 10.686-15.683.876-1.745 2.679-4.497 4.006-6.116 5.651-6.893 8.331-11.035 8.371-12.931.059-2.83-2.049-3.486-4.623-1.44m-167.267 5.796c-.736.814-1.135 2.722-.633 3.033s2.37-.677 2.647-1.398c.632-1.648-.886-2.881-2.014-1.635m-145.191 2.665c-.315.82.747 2.39 3.606 5.33 3.088 3.175 3.502 3.823 4.11 6.417.511 2.181.446 2.26-2.412 2.92-2.436.563-2.948 1.04-2.344 2.182 3.436 6.49 20.205 15.104 19.184 9.854-.138-.707-.371-1.999-.519-2.871-.474-2.796-1.794-4.088-5.253-5.139-4.639-1.41-8.178-4.356-5.915-4.924.492-.124 1.622-1.159 2.578-2.364 3.953-4.981 3.563-6.59-2.067-8.538-1.611-.556-4.033-1.538-5.385-2.182-2.63-1.252-5.242-1.573-5.583-.685m288.214 2.796c-.58.415-1.225.975-1.432 1.244-.281.365-.822.428-2.115.248-3.894-.543-5.126-.343-10.688 1.73-.878.327-1.967.487-2.51.367-6.801-1.493-3.8 9.716 3.06 11.43.938.234 2.915.971 4.395 1.637 4.753 2.139 7.753 1.969 10.679-.607 4.586-4.037 5.166-10.655 1.339-15.277-1.264-1.528-1.555-1.61-2.728-.772m-177.524 1.242c-4.163 3.937-8.325 5.627-14.661 5.952-6.33.325-6.323.071-.304 10.64 7.636 13.411 12.834 17.372 22.166 16.893 8.29-.425 15.876-8.405 20.887-21.973.716-1.938 1.844-4.984 2.507-6.769 2.259-6.085 1.888-6.481-3.729-3.975-7.508 3.349-14.277 2.988-21.271-1.136-2.91-1.716-3.428-1.682-5.595.368m6.771 1.113c6.259 2.958 13.406 3.391 18.678 1.132 5.2-2.228 5.598-1.34 2.949 6.581-2.071 6.195-2.465 6.451-6.354 4.137-3.669-2.184-5.669-2.566-9.641-1.839-1.696.31-3.989.564-5.097.564-6.305 0-11.593 2.973-14.44 8.118-2.41 4.354-2.745 4.25-6.364-1.982-5.425-9.342-5.401-10.773.187-11.207 4.803-.372 8.695-1.893 12.688-4.956 1.844-1.416 3.155-2.273 3.51-2.297.089-.006 1.837.781 3.884 1.749m-92.969 26.258c.378.831 1.698 1.261 1.698.554 0-.5-1.045-1.435-1.604-1.435-.401 0-.419.169-.094.881m106.72 27.693c-4.665 1.21-16.964 1.837-23.877 1.217-3.703-.333-4.61.347-1.938 1.453 3.407 1.41 4.477 2.035 6.274 3.662l1.932 1.75 1.316-.604c.723-.332 2.216-.616 3.318-.631 1.343-.018 2.216-.22 2.651-.614.914-.827 7.938-4.114 10.673-4.995 3.183-1.025 2.886-2.078-.349-1.238M70.542 305.812c-1.51.104-1.839.236-1.674.668.114.296.207.667.207.824 0 .158 1.863.349 4.141.425 9.046.303 13.283 7.165 7.453 12.071-1.456 1.225-3.988 1.903-8.892 2.383-4.809.471-5.186.775-4.432 3.578 1.058 3.931 1.539 4.068 6.985 1.994 8.64-3.291 13.037-3.078 14.165.688 1.722 5.745-5.305 9.423-14.31 7.491-4.06-.871-4.053-.875-4.053 2.024 0 5.585 6.965 11.4 14.173 11.834l2.822.17 2.25-1.825c3.903-3.167 4.767-5.94 3.088-9.91-.896-2.119-.912-2.281-.492-4.887.768-4.77-.762-8.045-4.851-10.38-1.442-.823-1.693-1.77-1.195-4.51 1.028-5.648-2.999-11.226-9.028-12.503-1.826-.387-2.514-.402-6.357-.135"/>
    <path fill="#9cabcf" d="M231.189 134.825c-5.892 1.538-12.175 6.352-15.494 11.871-.67 1.115-1.417 2.026-1.66 2.026-2.181 0-2.606 15.26-.511 18.291.349.504.915 1.947 1.259 3.207.99 3.626 5.38 9.537 8.609 11.595 8.992 5.727 23.952 2.172 28.174-6.696 9.936-20.873-12.534-44.086-28.299-29.235-3.507 3.304-5.98 5.113-6.11 4.469-.434-2.145 5.577-9.54 9.275-11.411 15.222-7.701 32.797 3.087 34.792 21.358l.4 3.66.46-1.54c1.569-5.245-.434-11.74-5.841-18.947-5.088-6.78-16.765-10.811-25.054-8.648m7.645 8.788c18.323 5.441 17.502 36.05-1.045 38.964-8.125 1.276-13.136-.92-17.538-7.685-4.222-6.488-4.68-17.654-.87-21.233l.816-.767 1.154 1.762c2.39 3.65 6.514 4.582 9.331 2.108 2.634-2.312 2.371-6.21-.62-9.201-2.051-2.051-2.043-2.626.057-3.684 1.908-.962 5.952-1.085 8.715-.264m-100.508 1.463c-10.835 1.719-18.983 10.085-21.368 21.94-.733 3.644-.579 5.03 1.139 10.253l.638 1.938-.248-1.938c-1.545-12.036 3.773-23.009 13.665-28.2 4.109-2.156 12.905-2.258 16.066-.187 1.263.828.792 1.162-2.243 1.592-14.995 2.127-23.055 18.936-15.914 33.189 3.514 7.013 6.551 9.426 12.24 9.726 5.331.281 12.932-2.41 16.803-5.947 4.18-3.821 6.236-15.159 4.304-23.742-.758-3.37-1.965-7.27-2.394-7.735-.655-.71-.269 1.685.742 4.602 4.555 13.148 1.258 23.849-8.886 28.843-10.513 5.175-19.157 1.061-22.919-10.908-2.404-7.648 1.165-20.476 4.129-14.837 2.279 4.337 8.611 4.544 10.47.342 1.171-2.647.354-5.235-2.46-7.801l-1.649-1.503.956-.848c2.359-2.091 7.928-1.949 12.857.328 5.083 2.349 5.394.731.686-3.567-4.815-4.396-10.944-6.439-16.614-5.54m90.445 3.848c1.532.792 2.599 3.293 2.078 4.871-1.677 5.082-8.689 2.561-7.573-2.723.53-2.507 2.962-3.458 5.495-2.148m-87.686 9.09c2.59 1.082 3.298 4.617 1.321 6.595-2.295 2.295-6.371.434-6.371-2.909 0-3.202 2.26-4.852 5.05-3.686m223.986 75.161c-.312.362-1.181 1.847-1.931 3.301-1.632 3.167-4.439 6.147-6.142 6.521l-1.194.262 1.303.669c3.987 2.045 9.605-4.544 8.717-10.224-.177-1.132-.211-1.156-.753-.529m-310.754 9.188c-6.009 2.123-8.798 9.234-6.352 16.199 2.148 6.118 18.596 47.27 18.99 47.514 1.585.98 1.632-.307.14-3.813-2.108-4.954-15.812-39.48-17.295-43.575-2.629-7.255-.988-11.395 4.752-11.992 1.301-.135 2.854-.507 3.453-.826 1.07-.568 16.84-.271 18.471.349.291.111 3.621.328 7.401.483s10.44.605 14.801 1.002c4.362.396 9.833.894 12.159 1.107 10.393.949 12.602 1.644 11.573 3.635-.548 1.059-.538 1.101.453 1.898 1.95 1.57 4.812 1.816 5.245.452 1.444-4.55 6.33-2.557 9.517 3.882 2.341 4.732 2.637 4.793 7.895 1.637 9.767-5.862 9.945-5.77 9.017 4.64-1.122 12.581-.797 16.423 2.28 26.947 3.583 12.252 12.368 30.565 14.662 30.565.833 0 1.567-1.801 2.973-7.288 1.801-7.032 3.441-12.444 6.048-19.957 1.13-3.257 2.055-6.386 2.055-6.952 0-1.21-2.158-7.129-3.374-9.257-2.414-4.222 3.147-13.93 8.026-14.01 1.043-.017.963-.083-.775-.644-2.46-.794-3.693-1.442-7.265-3.819-2.505-1.668-3.204-1.959-5.347-2.228-1.698-.213-3.163-.683-4.707-1.51-4.81-2.577-15.702-3.421-18.628-1.443-3.027 2.045-8.83 5.13-9.436 5.015-.351-.067-1.305-1.429-2.253-3.218-4.661-8.79-6.871-9.976-19.501-10.465-4.07-.158-12.555-.778-18.854-1.378-6.3-.6-13.278-1.253-15.507-1.449a2574 2574 0 0 1-18.855-1.739c-5.135-.502-9.943-.405-11.762.238m188.924 3.104c-1.949.847-11.55 3.936-17.338 5.579-6.473 1.837-7.651 2.305-9.834 3.907-.909.667-3.231 1.962-5.16 2.878s-5.109 2.591-7.065 3.723c-5.039 2.916-6.823 3.458-11.564 3.515-4.417.053-2.675.568 2.122.627 3.189.039 3.655.396 6.474 4.956 3.561 5.763 3.558 5.818-.747 11.815-4.861 6.771-4.711 5.806-2.926 18.74 2.881 20.882 3.453 22.749 6.283 20.522 4.758-3.742 27.209-39.936 29.819-48.073 1.741-5.426 9.073-19.567 11.682-22.531 2.184-2.481 2.932-2.586 10.39-1.451 8.953 1.362 9.61 1.759 7.759 4.694-6.532 10.355-7.305 27.287-1.987 43.484 2.96 9.013 9.353 18.895 12.981 20.063 2.338.753 2.59 1.537 1.809 5.649-.198 1.044-.753 4.413-1.234 7.487-2.424 15.493-4.135 18.596-13.231 23.991-11.393 6.758-33.881 12.798-53.854 14.465-35.24 2.942-69.757-.272-74.694-6.955-.987-1.336-1.871-2.106-2.881-2.511-2.856-1.142-15.312-3.095-21.675-3.397-11.761-.558-17.942-2.266-20.052-5.539l-.741-1.151-2.474.219c-4.981.439-8.891-1.244-13.678-5.887-1.716-1.665-3.175-2.854-3.241-2.643-3.431 10.951 8.07 21.419 23.622 21.501 6.043.032 7.617-.289 13.975-2.844 5.128-2.061 6.057-2.137 12.592-1.02 11.5 1.964 11.365 1.912 12.732 4.957 1.478 3.293 5.151 4.644 18.2 6.694 44.726 7.023 97.444-.339 118.514-16.552 4.612-3.549 5.527-5.501 7.409-15.807.573-3.14 1.604-8.801 2.29-12.581.687-3.78 1.249-7.851 1.249-9.048-.001-2.768.869-3.9 3.961-5.161 21.485-8.761 23.452-9.653 32.02-14.523 12.004-6.823 16.132-10.382 26.612-22.94 1.951-2.338 12.912-19.024 13.515-20.575.264-.678.926-2.185 1.472-3.348 1.372-2.923 1.45-3.898.305-3.802-5.706.479-9.448 1.752-11.947 4.066-1.619 1.498-2.486 2.004-4.292 2.503-3.292.91-3.662 1.248-4.543 4.15-.442 1.454-1.404 3.446-2.243 4.641-.807 1.152-1.648 2.405-1.868 2.786-1.097 1.902-5.957 6.648-10.777 10.526-2.963 2.383-5.467 4.447-5.563 4.585-.169.241-2.699 1.669-10.397 5.869-7.305 3.986-19.115 9.615-20.168 9.612-.887-.002-4.5 1.331-6.603 2.436-1.675.881-2.142.9-4.277.176-1.517-.516-1.847-.512-4.226.049-3.343.787-4.339.423-6.013-2.193-2.844-4.447-4.178-10.746-4.167-19.677.013-10.473 1.035-13.64 6.111-18.932 3.392-3.537 3.463-3.937 1.103-6.227-1.699-1.649-2.577-1.897-10.747-3.036-6.378-.889-8.923-1.54-9.707-2.484-.529-.638-1.583-.63-3.087.023m-14.956 17.929c3.882.741 4.255 1.4 2.947 5.203-.364 1.059-.778 2.947-.919 4.196-.617 5.462-6.99 16.988-20.669 37.383-4.587 6.838-6.394 8.818-7.259 7.953-1.119-1.12-4.3-19.771-4.434-26.003l-.066-3.027 1.652-2.487c2.271-3.418 3.676-4.945 5.321-5.784l1.401-.715-.18-2.238c-.146-1.818-.511-2.854-1.947-5.52-4.23-7.851-3.912-8.243 7.086-8.719 4.037-.174 7.434-.41 7.547-.524.397-.397 6.982-.202 9.52.282m-49.563 2.002c1.181.632.837 2.559-1.093 6.129-2.836 5.245-3.236 7.884-1.308 8.629 1.184.457 2.231 1.762 3.232 4.025 1.693 3.827 1.666 4.048-1.692 14.194-1.659 5.013-3.661 11.197-4.45 13.742-2.343 7.567-3.233 7.05-8.679-5.036-11.972-26.57-11.494-40.49 1.435-41.778 2.89-.288 11.968-.219 12.555.095m-65.539 32.988q-1.18.59-3.79 4.317c-5.229 7.466-5.314 7.508-9.146 4.571-4.156-3.186-7.278-2.965-7.278.515 0 2.878 8.958 11.034 12.514 11.395 2.588.262 5.557-3.061 11.604-12.991 3.031-4.978.512-10.015-3.904-7.807m3.245 1.551c1.972 1.551 1.472 2.937-3.89 10.787-6.144 8.994-7.166 9.062-15.488 1.032-4.76-4.594-2.828-7.558 2.333-3.578 4.779 3.685 5.442 3.451 10.069-3.558 3.602-5.454 4.893-6.321 6.976-4.683m115.29.449c-9.432 2.458-13.93 13.305-9.318 22.47 5.776 11.476 23.889 9.23 27.109-3.361 2.982-11.656-6.658-22.01-17.791-19.109m9.213 2.864c2.806 1.387 4.708 3.405 4.708 4.997 0 1.184-.435 1.054-3.401-1.017-6.602-4.61-15.585-.921-17.588 7.222-.971 3.947-2.132 3.13-1.839-1.293.596-9.006 9.782-14.029 18.12-9.909m-2.658 3.763c6.638 2.242 8.466 10.06 3.678 15.731-3.75 4.442-11.864 2.962-14.79-2.698-3.454-6.679 4.01-15.433 11.112-13.033m-5.213 4.166c-3.309 1.39-1.838 6.53 1.869 6.53 2.179 0 3.106-1.071 2.855-3.297-.284-2.518-2.619-4.117-4.724-3.233m1.937 2.7c.059.413-.126.834-.415.945-.671.258-1.421-.639-1.142-1.365.3-.783 1.428-.479 1.557.42"/>
    <path fill="#0eaef8" d="M220.841 175.859c4.805 8.236 18.418 9.608 25.46 2.566 2.248-2.248 3.904-4.691 1.919-2.83-1.271 1.191-1.488 1.198-2.392.082l-.718-.887-2.283 1.086c-6.044 2.876-11.094 2.985-16.94.368-.968-.434-1.924-.607-2.677-.485q-1.17.19-2.098-.418l-.928-.608zm-87.735 9.131c4.134 7.775 15.608 8.852 23.304 2.188l1.169-1.012-1.556-.233c-1.157-.174-2.349-.004-4.644.661-4.087 1.185-5.674 1.133-10.266-.33-3.948-1.259-5.082-1.173-4.501.343.49 1.276-.801.773-2.388-.931-1.519-1.632-1.671-1.725-1.118-.686m-75.23 60.883c-1.625.799-1.529.819 4.715.994 7.628.214 10.94.5 12.896 1.115 1.274.4 2.608.466 5.815.286 2.288-.128 7.57-.243 11.738-.255l7.577-.023-4.582-.47c-2.52-.259-7.674-.621-11.454-.806-3.779-.184-8.775-.487-11.101-.673-9.039-.724-14.356-.781-15.604-.168m44.503 2.568c.581.158 2.088.308 3.348.335 8.022.17 14.296 1.452 15.072 3.079.667 1.398 1.232 1.506 1.765.337.777-1.705-.75-2.201-9.789-3.178-5.902-.638-11.849-.965-10.396-.573m26.884 4.511c-.724.829-1.492 2.342-1.052 2.07.348-.215 1.912-2.687 1.7-2.687-.061 0-.352.277-.648.617m51.78 16.916c-2.887 3.964-3.396 6.463-1.862 9.145 1.216 2.128 3.374 8.047 3.374 9.257 0 .566-.925 3.695-2.055 6.952-2.61 7.52-4.248 12.926-6.054 19.981-.789 3.079-1.666 5.93-1.949 6.334-.71 1.013-.679 1.081.728 1.59.683.247 1.507.874 1.831 1.392 5.509 8.832 9.331 13.807 10.606 13.807 1.095 0 8.295-7.973 11.713-12.97 1.171-1.712 1.903-2.43 2.716-2.663 1.085-.311 1.1-.343.607-1.297-.839-1.623-4.751-26.86-4.751-30.65 0-2.171 1.738-5.306 6.229-11.237 1.935-2.557 1.35-2.238-2.118 1.152-2.939 2.872-3.379 3.471-4.123 5.61-1.025 2.943-1.484 3.399-2.718 2.699-1.862-1.058-1.845-1.65.103-3.45 4.307-3.981 6.305-11.549 3.582-13.57-2.574-1.91-9.548-2.633-12.916-1.338-2.273.873-2.333.841-1.867-.996.455-1.793.405-1.781-1.076.252m19.828 1.477c.864 1.695 2.477 4.105 2.477 3.703 0-.376-2.796-5.092-3.018-5.092-.093 0 .151.625.541 1.389m-19.726 3.164c0 2.894-.81 3.738-1.938 2.016-.611-.932-.429-1.766.643-2.957 1.049-1.166 1.295-.987 1.295.941m-86.696 9.693c-12.067 3.336-13.691 17.635-3.559 31.343 13.847 18.734 37.711 17.918 37.74-1.29.026-17.013-19.44-34.128-34.181-30.053m22.481 14.518c3.2 2.069 2.523 4.265-4.441 14.418-5.56 8.107-7.233 8.102-15.897-.048-3.244-3.051-3.623-3.606-3.623-5.301 0-3.48 3.122-3.701 7.278-.515 3.832 2.937 3.917 2.895 9.146-4.571 3.391-4.841 4.943-5.662 7.537-3.983m110.535 1.354c-5.047 2.539-5.895 3.434-7.407 7.818-3.767 10.929 2.176 21.522 12.945 23.074 8.652 1.247 16.213-4.306 17.773-13.052 1.81-10.143-5.66-19.186-16.239-19.659l-3.171-.142zm13.727 1.007c9.462 4.332 12.031 17.733 4.762 24.847-8.482 8.303-22.452 4.372-24.989-7.03-2.726-12.254 9.279-22.829 20.227-17.817m-7.839 5.931c-5.465 1.573-8.652 8.279-6.192 13.034 2.926 5.66 11.04 7.14 14.79 2.698 6.298-7.46.367-18.312-8.598-15.732m3.426 5.026c.529.528.895 1.392 1.005 2.374.497 4.41-5.76 4.605-6.474.201-.516-3.175 3.144-4.899 5.469-2.575m38.111 15.585c0 2.227-3.554 16.117-4.967 19.414l-.707 1.651.773-.688c1.165-1.035 2.336-3.97 3.117-7.814 1.032-5.078 2.182-12.505 1.969-12.717-.102-.102-.185-.033-.185.154"/>
    <path fill="#f1c69d" d="M164.988 21.521c-6.686 2.679-11.855 17.704-10.099 29.354.793 5.264-.528 5.516-5.541 1.059-3.6-3.201-5.832-1.098-5.885 5.543-.026 3.231.217 4.592 1.804 10.106.546 1.899-.004 2.511-4.201 4.674-3.638 1.876-4.252 1.805-8.84-1.013C116.292 61.456 91.7 53.651 76.33 53.502c-12.218-.117-15.758 5.327-16.31 25.088-.753 26.978 8.228 56.399 22.575 73.954 3.371 4.124 3.363 3.17.204 25.43-1.341 9.443-3.885 13.427-9.35 14.643-5.559 1.237-5.26 4.823.97 11.61 3.117 3.396 3.198 3.954.687 4.706-6.729 2.016.65 12.547 13.195 18.833 3.599 1.804 3.85 2.034 4.173 3.828.444 2.466 3.708 4.686 11.315 7.699 1.55.615 3.533 1.495 4.405 1.957s3.806 1.622 6.52 2.578c6.362 2.24 6.519 2.285 6.519 1.839 0-.496-4.014-2.479-7.891-3.898-1.724-.631-3.627-1.437-4.229-1.792s-2.668-1.299-4.591-2.099c-7.675-3.191-10.073-4.761-10.073-6.594 0-1.651-.928-2.489-4.98-4.492-6.186-3.058-10.798-6.662-13.929-10.884-2.454-3.309-2.113-4.745 1.389-5.856 3.081-.977 2.924-2.24-.733-5.912-5.277-5.296-6.409-8.752-3.153-9.625 7.642-2.049 10.091-6.103 11.697-19.367.317-2.613.965-7.492 1.442-10.842 1.271-8.936 1.506-7.909-3.039-13.293-13.099-15.516-22.533-49.104-21.112-75.157.915-16.757 3.558-20.537 14.348-20.518 14.98.026 37.532 7.106 55.374 17.383 5.777 3.329 6.096 3.329 11.659.031 4.022-2.384 4.308-3.013 3.057-6.72-2.092-6.197-1.976-12.85.227-13.104.712-.082 1.506.305 2.996 1.462 5.784 4.491 8.628 4.397 7.391-.246-2.561-9.609-.396-21.062 5.355-28.338 2.464-3.118 3.796-2.892 4.725.802 2.568 10.205 7.877 15.429 23.841 23.457 9.918 4.989 10.785 4.327 6.092-4.651-2.232-4.272-2.242-4.885-.073-4.885 6.109 0 17.031 8.532 21.849 17.068 2.043 3.62 2.949 4.12 11.227 6.194 8.209 2.057 8.411 2.025 13.394-2.142 12.966-10.842 30.766-20.234 45.109-23.803 12.505-3.11 16.722.158 20.288 15.722 6.102 26.637 1.147 63.926-10.809 81.332-1.783 2.595-1.397 5.064 3.29 21.032 2.349 8 5.742 11.05 11.821 10.626 3.079-.214 3.263-.187 3.789.563 1.457 2.081-1.182 9.001-5.75 15.072-1.606 2.135-1.79 2.975-.77 3.521 1.245.667 1.81.385 4.187-2.083 5.559-5.773 11.232-5.118 17.397 2.008 3.268 3.777 5.42.578 8.241-12.246 2.73-12.413 4.303-15.602 8.934-18.106 4.935-2.669 10.155-1.092 12.61 3.81 1.815 3.623 2.449 3.763 5.843 1.288 9.483-6.913 17.552-.887 15.429 11.523-.671 3.923-.449 4.127 4.485 4.127 4.562 0 6.061.724 7.999 3.862 3.212 5.198.394 12.808-8.831 23.851-2.476 2.965-3.896 5.083-5.464 8.153-4.038 7.907-6.56 11.167-13.481 17.425-3.779 3.417-.559 2.159 3.684-1.439 3.379-2.865 7.427-8.39 10.498-14.325 1.952-3.772 3.308-5.842 5.717-8.725 3.865-4.625 7.313-9.697 8.707-12.808 4.356-9.719.731-17.781-8.222-18.283l-3.172-.178v-5.11c0-11.909-9.581-17.289-18.286-10.268-1.94 1.564-2.429 1.44-3.904-.989-4.648-7.65-14.459-7.353-19.5.591-1.631 2.57-3.084 7.167-4.66 14.749-2.699 12.984-3.346 13.8-7.53 9.493-3.636-3.744-4.867-4.245-10.349-4.207-5.079.034-4.842.382-3.084-4.537 2.476-6.926 1.327-9.332-3.997-8.366-6.513 1.181-8.963-1.928-12.768-16.202-2.955-11.087-2.945-10.904-.753-14.728 12.74-22.226 16.808-55.802 10.001-82.54-4.547-17.859-10.605-20.107-32.2-11.948-12.858 4.857-24.994 12.054-36.392 21.581-3.716 3.107-3.699 3.106-11.58 1.012-6.895-1.832-7.959-2.292-8.932-3.866-6.973-11.283-14.39-17.505-23.253-19.505-4.713-1.064-6.037 1.412-3.097 5.795 4.463 6.652 3.446 7.219-5.05 2.818-14.428-7.473-19.325-12.57-21.084-21.944-.382-2.034-.714-2.854-1.4-3.459-.997-.879-1.042-.887-2.216-.417m111.789 53.183c-1.169.482-3.594 3.18-4.021 4.474-1.005 3.044.534 3.838 2.828 1.459 3.928-4.075 4.584-7.331 1.193-5.933m-1.446 10.463-1.189.26c-4.093.897.182 8.076 4.458 7.49 5.56-.762 9.706-4.153 7.543-6.168-1.275-1.188-8.051-2.179-10.812-1.582M95.403 91.851c-.817.817 2.828 4.148 5.021 4.586 2.298.46.771-2.977-1.883-4.236-1.224-.581-2.738-.75-3.138-.35m96.392 4.096c-.199.242-.417.832-.484 1.31-.077.549-.511 1.057-1.179 1.379l-1.669.804c-.337.163-.833.296-1.104.296-.648 0-2.337 2.235-2.337 3.093 0 2.156 5.482 2.198 8.477.065.534-.38 1.145-.691 1.357-.691.213 0 .386-.313.386-.694 0-.472.169-.629.529-.491.396.152.529-.058.529-.838 0-1.29-.95-3.264-1.571-3.264-.254 0-.545-.317-.646-.705-.211-.805-1.702-.977-2.288-.264m89.667 3.622c.251.654 1.258 1.228 2.127 1.213.528-.009.466-.164-.349-.881-1.116-.982-2.098-1.165-1.778-.332M96.035 101.91c-5.827.66-9.712 4.323-6.264 5.907 5.082 2.335 13.432-.85 12.222-4.661-.532-1.678-1.102-1.797-5.958-1.246m127.348 1.128c-9.589 2.212-16.066 8.87-18.407 18.919-.291 1.25-.938 4.017-1.437 6.149-.857 3.662-1.337 7.152-1.815 13.216-.401 5.082 1.354 19.815 3.167 26.598 1.069 4-2.636 6.567-7.639 5.293-5.944-1.513-15.415-.096-19.595 2.932-2.14 1.55-3.556 1.952-5.261 1.493-2.644-.712-2.942-2.198-2.017-10.034 1.71-14.494-3.042-36.21-10.125-46.26-7.775-11.033-22.149-11.987-35.157-2.332-1.447 1.073-3.69 2.448-4.985 3.056-7.4 3.469-15.377 22.296-15.521 36.63-.056 5.608 1.327 10.043 4.261 13.666l.687.85.349-.88c.192-.484.862-3.338 1.49-6.343 2.652-12.709 6.894-19.722 14.736-24.365 15.672-9.28 33.078-2.316 37.999 15.202 3.387 12.055 2.776 22.188-1.658 27.521-.757.911-1.454 2.199-1.594 2.948l-.25 1.33 2.778-2.336c5.616-4.723 7.495-4.692 8.438.141.52 2.665 1.959 4.266 5.224 5.81 8.721 4.126 6.933 9.319-3.727 10.827-4.981.704-7.712-.28-11.267-4.061-2.037-2.167-2.509-2.497-3.575-2.497-4.19 0-9.08 8.7-5.778 10.279.427.204 1.49.698 2.362 1.097 2.38 1.088 8.155 6.187 10.655 9.407 1.215 1.565 2.813 3.374 3.551 4.02s1.653 1.784 2.033 2.529c.381.746.783 1.355.894 1.355.275 0-1.539-3.209-4.576-8.098-2.792-4.494-5.331-7.397-9.134-10.443-3.873-3.102-4.361-4.309-2.538-6.275 1.48-1.598 2.813-1.196 4.565 1.377 3.545 5.207 13.027 5.738 20.608 1.153 5.988-3.621 4.964-7.438-3.063-11.42-4.222-2.095-5.555-4.313-4.686-7.798.602-2.417 1.071-2.96 3.764-4.362 4.303-2.239 7.344-2.74 11.83-1.946 1.97.348 3.314.388 4.91.147 3.814-.577 5.945 1.35 5.945 5.378 0 2.832-1.485 4.734-6.798 8.707-5.257 3.932-5.094 6.531.581 9.24 8.847 4.223 20.063 1.739 23.179-5.132 1.56-3.44 3.938-4.271 6.217-2.172 2.298 2.117 2.174 4.399-.335 6.137-2.349 1.628-4.374 5.225-7.315 12.996-10.076 26.618-28.138 32.487-42.294 13.745l-.799-1.058.624 1.058c.343.581 1.126 1.691 1.74 2.467.615.775 1.49 2.044 1.945 2.819 2.536 4.316 9.815 7.586 15.674 7.042 9.656-.897 16.484-7.36 21.732-20.57.576-1.45 1.359-3.074 1.739-3.609.381-.534.935-1.552 1.231-2.261 1.864-4.46 5.999-9.905 7.777-10.238 6.965-1.307 2.052-11.384-5.564-11.413-2.437-.01-3.125.484-4.647 3.336-2.536 4.753-12.21 7.848-18.211 5.826-6.441-2.17-6.508-4.185-.307-9.207 4.036-3.269 4.741-4.299 5.438-7.953.979-5.132 2.966-5.95 8.138-3.35 1.578.794 4.67 1.913 6.87 2.487s4.279 1.152 4.618 1.285c.922.362.763.032-.8-1.653-.779-.841-2.087-2.597-2.907-3.904-.92-1.466-1.729-2.377-2.113-2.379-.736-.003-2.018-1.959-2.02-3.081-.001-.434-.476-1.702-1.056-2.82-.968-1.863-1.992-6.035-2.631-10.718-.588-4.315 1.219-12.772 3.788-17.728 7.375-14.225 25.767-18.383 39.986-9.042 5.212 3.425 8.843 8.262 12.42 16.549 3.531 8.182 4.055 8.721 5.536 5.692 3.951-8.085.137-23.237-8.941-35.514-4.677-6.326-9.288-10.115-13.846-11.378-1.405-.389-3.142-1.008-3.861-1.375-6.168-3.146-14.636-4.225-21.229-2.704m13.494 3.234c13.102 2.422 23.168 11.591 28.006 25.508 3.202 9.213 1.094 10.728-4.266 3.068-3.02-4.316-12.822-11.5-15.69-11.5-.687 0-1.582-.394-2.412-1.061-3.406-2.737-13.6-2.844-19.568-.205-2.573 1.138-8.1 6.445-10.341 9.93-.239.372-.836 1.28-1.327 2.019-.49.74-1.114 1.85-1.386 2.467-3.253 7.394-4.46-.113-1.76-10.939 3.807-15.265 13.894-22.033 28.744-19.287m-89.855 10.376c4.66 1.441 8.799 4.496 11.155 8.236 4.604 7.305 8.862 25.38 4.432 18.816-.556-.823-1.838-2.37-2.849-3.436s-2.283-2.53-2.826-3.253c-2.508-3.341-7.121-6.113-11.571-6.954l-4.076-.771-3.935.941c-4.841 1.157-7.318 2.064-8.432 3.087-.469.431-1.518 1.241-2.333 1.801-.814.56-1.792 1.524-2.174 2.142s-1.532 1.913-2.554 2.878c-2.888 2.724-5.93 6.311-7.725 9.107-5.716 8.906-5.009-5.703.784-16.186 6.761-12.236 21.4-19.718 32.104-16.408m-53.579.529c-1.468 1.671-1.486 2.389-.049 1.888 1.143-.398 2.563-1.941 2.357-2.561-.272-.817-1.25-.532-2.308.673m145.324 6.924c1.745.492.964.945-1.695.984-.932.014-2.804.197-4.161.408-2.819.437-3.917.244-3.106-.546 1.18-1.149 6.202-1.623 8.962-.846m25.56 48.075c-3.684 2.205-5.5 1.963-4.767-.634.258-.916-2.154 3.224-2.875 4.934-.685 1.623.29 1.683 4.875.297 9.228-2.788 16.546-.711 15.108 4.288-.264.919-.574 3.499-.69 5.734-.207 4.004-.23 4.092-1.53 5.863-.726.989-1.32 1.981-1.32 2.205 0 .672-1.398 3.199-1.77 3.199-.189 0-.345.222-.345.493 0 .272-.515.822-1.145 1.223-2.214 1.408-2.93 1.978-5.464 4.349-1.406 1.316-2.786 2.393-3.067 2.393s-1.588.968-2.906 2.152-2.951 2.39-3.629 2.681c-.679.291-2.027 1.151-2.996 1.913-2.438 1.915-11.677 8.092-13.039 8.718-.388.178-1.657 1.174-2.82 2.214-2.221 1.986-2.983 2.439-5.286 3.145-.776.238-2.257 1.121-3.292 1.963-1.036.842-2.121 1.531-2.413 1.531s-.951.295-1.465.655c-3.78 2.644-8.434 4.077-10.374 3.193-1.21-.552-5.346.785-7.844 2.535-8.12 5.688-17.819 6.45-25.417 1.997-3.287-1.926-5.642-2.496-10.517-2.547-4.044-.041-6.011-.381-8.511-1.472-.611-.266-1.366-.484-1.679-.484s-.844-.146-1.18-.323c-1.613-.851-3.289-1.393-5.546-1.795-1.357-.242-2.967-.657-3.578-.923s-1.437-.484-1.836-.484-1.01-.301-1.357-.669c-.346-.369-1.539-.88-2.651-1.136-1.519-.351-2.51-.885-3.993-2.15-1.085-.926-2.213-1.683-2.508-1.683s-1.034-.224-1.645-.498-1.917-.68-2.903-.902c-1.265-.286-2.317-.864-3.575-1.964q-1.782-1.56-3.67-2.075c-4.636-1.264-4.654-1.274-7.174-3.886-1.574-1.632-2.936-2.711-3.764-2.98-1.347-.437-3.483-2.731-6.591-7.078-2.491-3.485-1.535-8.451 2.317-12.033 3.132-2.913 3.711-3.062 10.153-2.615 2.601.18 4.202.141 4.868-.119l.992-.388-.751-1.321c-1.144-2.013-2.594-3.676-2.29-2.627.601 2.078-1.178 2.316-4.622.619l-2.466-1.215-2.368.86c-6.526 2.369-10.764 6.089-12.061 10.587-.33 1.146-1.07 3.019-1.644 4.162-.851 1.696-1.078 2.675-1.236 5.313l-.193 3.235 1.797 1.515c1.899 1.601 2.579 3.014 3.397 7.066.368 1.819.532 2.042 2.669 3.633 1.253.932 2.991 2.382 3.864 3.223s2.299 1.882 3.171 2.312c2.156 1.064 5.512 3.345 7.243 4.922.841.767 2.505 1.707 4.052 2.29 1.445.545 2.785 1.106 2.978 1.247 1.586 1.158 5.608 2.928 7.61 3.349 1.392.293 4.068 1.323 6.226 2.398 2.082 1.036 4.579 2.167 5.548 2.514a55 55 0 0 1 2.911 1.134c.632.277 2.138.669 3.348.872 2.344.392 4.645 1.326 5.857 2.377 1.505 1.306 15.502 2.999 21.832 2.641 2.94-.166 5.478-.093 7.891.226 2.944.39 4.141.392 6.938.011a98 98 0 0 1 6.729-.633c1.842-.095 3.507-.295 3.701-.445.423-.326 1.845-.624 4.229-.885 4.341-.475 5.284-.634 6.309-1.061.601-.25 1.905-.46 2.9-.468 2.415-.017 5.754-.913 8.764-2.351 1.357-.649 2.943-1.29 3.525-1.426s1.308-.465 1.615-.731 1.417-.725 2.467-1.021c2.172-.612 3.892-1.476 4.305-2.161.154-.257.95-.772 1.768-1.144.817-.373 2.198-1.289 3.067-2.036 2.162-1.859 4.111-3.28 4.497-3.28.177 0 .605-.314.951-.696.346-.383 1.362-1.048 2.257-1.478s2.876-1.73 4.402-2.89c1.526-1.159 3.598-2.675 4.604-3.368a88 88 0 0 0 3.745-2.77c2.69-2.119 4.75-3.698 7.203-5.522 4.201-3.124 3.984-2.87 4.249-4.988.181-1.452.558-2.373 1.446-3.537.66-.865 1.531-2.455 1.934-3.534.43-1.147 1.451-2.752 2.461-3.868 1.717-1.895 1.728-1.922 1.704-4.276-.037-3.655.544-7.52 1.374-9.147 1.073-2.103.956-2.786-.869-5.109-1.148-1.461-1.677-2.498-1.811-3.547-.535-4.175-2.934-6.2-9.607-8.106-5.315-1.518-5.794-1.501-8.801.298m48.743 22.585c-.226.092-1.61 1.577-3.075 3.3s-4.181 4.37-6.036 5.883c-3.59 2.93-4.025 3.648-3.412 5.644.698 2.276-1.529 4.765-8.199 9.163-1.935 1.277-4.561 3.218-5.835 4.315-3.348 2.881-7.538 5.542-13.934 8.849-3.09 1.598-6.523 3.443-7.628 4.101s-3.088 1.565-4.405 2.016c-2.211.758-9.673 3.804-12.352 5.043-1.637.757-1.451 1.268.351.963 1.328-.224 3.443-1.054 8.7-3.413a31 31 0 0 1 3.348-1.221c.982-.286 2.975-1.17 4.429-1.966 1.454-.795 5.26-2.774 8.458-4.396 6.383-3.239 11.772-6.688 14.788-9.465 1.074-.988 3.3-2.682 4.948-3.764 7.123-4.677 9.876-7.825 9.162-10.476-.47-1.745-.342-1.949 3.044-4.853 1.383-1.186 3.673-3.433 5.089-4.994s2.85-2.838 3.187-2.838c1.531 0 4.727 5.514 6.144 10.599 1.642 5.895 2.625 7.766 2.625 4.996-.001-3.149-2.066-9.114-4.633-13.379-2.183-3.627-3.391-4.668-4.764-4.107m8.469 25.534c.247 8.264 9.174 17.998 19.893 21.694 4.688 1.616 6.011 1.496 1.828-.167-11.537-4.584-19.972-13.518-21.518-22.791-.252-1.517-.281-1.34-.203 1.264m-186 29.168c-.212.342 1.21.787 5.254 1.643 1.551.328 4.405.978 6.344 1.444 3.939.947 4.405.998 4.405.482 0-1.272-15.312-4.687-16.003-3.569m-69.283 57.61c-4.97 3.91-6.382 11.17-3.361 17.284.787 1.593 1.249 3.04 1.253 3.928.013 2.643.689 6.123 1.579 8.137 1.006 2.274 1.478 2.359.885.158-.217-.805-.615-3.319-.884-5.586-.315-2.649-.81-4.9-1.384-6.299-2.213-5.395-1.914-9.158 1.078-13.548 1.626-2.386 2.19-5.141.834-4.074"/>
    <path fill="#e1a58a" d="M162.955 25.222c-5.909 6.346-8.495 19.081-5.872 28.922 1.237 4.643-1.607 4.737-7.391.246-1.49-1.157-2.284-1.544-2.996-1.462-2.203.254-2.319 6.907-.227 13.104 1.251 3.707.965 4.336-3.057 6.72-5.563 3.298-5.882 3.298-11.659-.031-17.842-10.277-40.394-17.357-55.374-17.383-10.79-.019-13.433 3.761-14.348 20.518-1.421 26.053 8.013 59.641 21.112 75.157 4.545 5.384 4.31 4.357 3.039 13.293a647 647 0 0 0-1.442 10.842c-1.606 13.264-4.055 17.318-11.697 19.367-3.256.873-2.124 4.329 3.153 9.625 3.657 3.672 3.814 4.935.733 5.912-3.502 1.111-3.843 2.547-1.389 5.856 3.131 4.222 7.743 7.826 13.929 10.884 4.052 2.003 4.98 2.841 4.98 4.492 0 1.833 2.398 3.403 10.073 6.594 1.923.8 3.988 1.744 4.591 2.099.602.355 2.505 1.161 4.229 1.791 3.971 1.453 7.211 3.049 7.891 3.886.366.45 1.544.825 3.816 1.214 1.807.31 4.345.964 5.638 1.453 3.158 1.194 4.606 1.54 4.842 1.158.4-.647 8.805.62 11.784 1.776.484.188 1.566.517 2.404.731 1.167.299 1.601.613 1.856 1.345l.333.955 3.607-.007c5.219-.009 10.81 1.028 13.6 2.523 1.54.825 3.009 1.297 4.695 1.509 2.164.271 2.837.56 5.689 2.436 5.29 3.482 9.025 4.893 6.787 2.565-1.287-1.339-3.073-2.392-6.284-3.705-2.68-1.095-1.763-1.779 1.938-1.445 6.992.629 17.703.12 23.419-1.113 3.826-.826 4.553.049.918 1.105-2.355.685-9.618 4.069-10.905 5.081-.697.548-1.228.663-2.364.513-1.054-.14-1.908.009-3.05.532l-1.586.727 3.91.007c4.74.01 6.454-.503 11.564-3.46 1.956-1.132 5.135-2.807 7.065-3.723 1.929-.916 4.251-2.211 5.16-2.878 2.181-1.601 3.356-2.068 9.834-3.911 9.972-2.837 20.247-6.353 21.367-7.311.76-.651 10.182-4.688 13.252-5.678 1.021-.33 3.046-1.273 4.5-2.097s5.022-2.73 7.93-4.236c6.092-3.156 10.269-5.821 13.561-8.654 1.274-1.097 3.9-3.038 5.835-4.315 6.67-4.398 8.897-6.887 8.199-9.163-.613-1.996-.178-2.714 3.412-5.644 1.855-1.513 4.574-4.164 6.042-5.891 1.469-1.726 2.979-3.236 3.356-3.356 3.334-1.058 9.863 13.203 8.822 19.271-1.672 9.753 5.192 20.109 17.343 26.166 12.007 5.985 19.256 4.793 23.759-3.908.824-1.591 1.656-2.991 1.851-3.112.194-.12.678-.91 1.076-1.756.445-.947 1.434-2.086 2.575-2.967 4.587-3.538 8.601-8.84 12.552-16.577 1.521-2.978 2.966-5.129 5.42-8.066 9.225-11.043 12.043-18.653 8.831-23.851-1.938-3.138-3.437-3.862-7.999-3.862-4.934 0-5.156-.204-4.485-4.127 1.522-8.898-1.773-14.463-8.476-14.317l-1.939.042 2.327.238c5.95.61 8.835 4.98 7.743 11.73-1.202 7.429-1.302 7.29 4.908 6.804 3.528-.276 4.963.322 6.913 2.878 3.757 4.927 1.02 12.595-8.612 24.122-2.243 2.683-3.815 5.04-5.5 8.242-4.297 8.166-7.695 12.467-12.889 16.315-3.24 2.4-3.385 2.577-4.069 4.99-1.993 7.018-4.425 8.81-11.958 8.81-14.511 0-30.364-13.922-28.064-24.646.56-2.61.485-4.317-.283-6.442-.37-1.025-1.157-3.449-1.748-5.388-.772-2.531-1.681-4.49-3.223-6.95-3.273-5.22-4.439-5.835-6.644-3.5-5.133 5.439-7.155 7.385-9.615 9.257-3.244 2.47-3.708 3.291-2.923 5.171 1.018 2.436-.302 3.937-7.42 8.437-2.132 1.348-5.145 3.349-6.696 4.446-4.711 3.334-5.202 3.618-7.65 4.429-4.599 1.525-5.719.648-3.86-3.021 1.197-2.361 2.163-3.355 3.994-4.109 2.012-.828 2.531-1.901 2.202-4.548-.356-2.854-.294-3.19.936-5.13.566-.893 1.03-2.077 1.03-2.63 0-1.5.801-2.769 2.592-4.108 1.908-1.425 2.274-2.564 1.444-4.491-.916-2.126-.734-6.667.372-9.295 1.239-2.944.986-4.115-1.453-6.713-.467-.498-1.154-2.002-1.526-3.343-1.046-3.775-4.307-6.425-9.08-7.382-.541-.109.256.264 1.77.827 4.435 1.65 6.431 3.696 6.978 7.154.198 1.258.701 2.265 1.878 3.763 1.81 2.304 1.925 2.99.854 5.09-.83 1.627-1.411 5.492-1.374 9.147.024 2.354.013 2.381-1.704 4.276-1.01 1.116-2.031 2.721-2.461 3.868-.403 1.079-1.274 2.669-1.934 3.534-.888 1.164-1.265 2.085-1.446 3.537-.265 2.118-.048 1.864-4.249 4.988a305 305 0 0 0-7.203 5.522 88 88 0 0 1-3.745 2.77c-1.006.693-3.078 2.209-4.604 3.368-1.526 1.16-3.507 2.46-4.402 2.89s-1.911 1.095-2.257 1.478c-.346.382-.774.696-.951.696-.386 0-2.335 1.421-4.497 3.28-.869.747-2.25 1.663-3.067 2.036-.818.372-1.614.887-1.768 1.144-.413.685-2.133 1.549-4.305 2.161-1.05.296-2.16.756-2.467 1.021-.307.266-1.034.595-1.615.731-.582.136-2.168.777-3.525 1.426-3.01 1.438-6.349 2.334-8.764 2.351-.995.008-2.312.223-2.928.48s-2.044.57-3.172.696c-4.079.454-4.889.558-5.929.761-.581.113-1.215.328-1.409.477-.194.15-1.859.35-3.701.445-1.841.095-4.869.38-6.729.633-2.797.381-3.994.379-6.938-.011-2.413-.319-4.951-.392-7.891-.226-6.33.358-20.327-1.335-21.832-2.641-1.212-1.051-3.513-1.985-5.857-2.377-1.21-.203-2.716-.595-3.348-.872a55 55 0 0 0-2.911-1.134c-.969-.347-3.466-1.478-5.548-2.514-2.158-1.075-4.834-2.105-6.226-2.398-2.002-.421-6.024-2.191-7.61-3.349-.193-.141-1.533-.702-2.978-1.247-1.547-.583-3.211-1.523-4.052-2.29-1.731-1.577-5.087-3.858-7.243-4.922-.872-.43-2.299-1.471-3.171-2.312-.873-.841-2.611-2.291-3.864-3.223-2.137-1.591-2.301-1.814-2.669-3.633-.818-4.052-1.498-5.465-3.397-7.066l-1.797-1.515.193-3.235c.158-2.638.385-3.617 1.236-5.313.574-1.143 1.314-3.016 1.644-4.162 1.297-4.498 5.535-8.218 12.061-10.587l2.368-.86 2.466 1.215c4.841 2.385 6.008 1.084 3.116-3.474-1.152-1.816-3.241-7.538-4.013-10.994l-.472-2.115-.1 3.965c-.097 3.882-.655 5.269-1.37 3.407-.152-.397-.288-.439-.47-.144-.353.571-1.757-.308-1.512-.947.099-.256-.006-.466-.232-.466s-.331-.128-.234-.286.258-2.287.358-4.733c.29-7.113 1.649-13.435 3.792-17.651 8.53-16.776 30.707-20.297 40.544-6.437 2.087 2.94 3.445 5.665 3.449 6.922.002.495.143 1.05.313 1.234.426.462 1.632 4.35 2.398 7.735.458 2.022.638 4.266.637 7.93l-.001 5.11-1.614 4.739-1.615 4.739 1.391-1.567c4.642-5.23 5.349-15.559 1.903-27.823-4.921-17.518-22.327-24.482-37.999-15.202-7.842 4.643-12.084 11.656-14.736 24.365-.628 3.005-1.298 5.859-1.49 6.343l-.349.88-.687-.85c-4.863-6.004-5.589-16.187-2.021-28.345.389-1.327.642-2.478.562-2.558-.238-.239-1.591 4.738-2.364 8.693-1.772 9.07-1.312 13.951 1.922 20.399 1.814 3.618 4.383 6.982 4.921 6.445.109-.11.198.324.198.963 0 .64.331 1.697.734 2.35.852 1.378 1.903 1.642 1.568.394-.168-.627-.095-.586.35.195 1.187 2.084-.251 6.226-2.164 6.235-3.246.014-11.145 6.88-11.963 10.398-.135.582-.869 2.31-1.631 3.841-2.647 5.315-2.625 9.236.063 11.486 2.119 1.775 2.898 4.241 2.182 6.915-.79 2.953-.451 3.645 2.839 5.796 1.388.908 2.384 2.784 2.384 4.494 0 .724.407 1.316 1.586 2.301 3.301 2.759 1.114 3.823-5.176 2.517-3.553-.738-6.378-2.18-6.719-3.429l-.528-1.939c-.223-.818-1.039-1.353-5.232-3.436-5.924-2.942-8.582-4.803-12.146-8.508-4.243-4.409-4.362-5.435-.816-7.003 3.805-1.683 3.712-2.58-.755-7.26-5.126-5.373-5.849-7.936-2.418-8.579 6.093-1.143 9.515-6.669 11.029-17.813 3.155-23.209 3.196-21.207-.519-25.374-15.021-16.848-24.884-52.915-22.022-80.529 1.264-12.199 4.076-15.342 13.709-15.323 14.98.029 37.777 7.327 54.933 17.585 5.552 3.32 5.953 3.338 11.447.499 5.429-2.805 5.679-3.283 4.149-7.923-.801-2.428-1.138-4.224-1.281-6.82-.324-5.865.455-6.588 4.22-3.919 7.442 5.276 9.57 4.431 7.442-2.953-2.102-7.296.135-18.808 4.923-25.33 2.643-3.601 3.359-3.351 5.029 1.753 2.752 8.412 7.901 13.718 18.93 19.506 9.855 5.171 12.207 6.259 13.069 6.043 1.876-.471 1.405-3.303-1.427-8.577-2.331-4.341-2.02-5.164 1.557-4.124 7.336 2.132 13.827 7.926 19.828 17.697 1.612 2.627 2.475 3.04 10.758 5.149 8.579 2.185 8.738 2.165 12.994-1.571 17.686-15.525 48.405-28.817 57.268-24.779 2.803 1.277 4.682 4.031 6.464 9.475 8.471 25.872 4.235 66.185-9.07 86.322-2.493 3.773-2.63 2.291 1.719 18.7 2.987 11.275 6.929 15.573 13.573 14.802 3.827-.444 4.327.298 2.956 4.387-1.088 3.246-2.327 5.457-5.278 9.415-2.429 3.258-2.645 3.96-1.553 5.052 1.348 1.348 3.273.972 4.828-.945 5.595-6.894 12.231-6.655 17.582.635 3.651 4.974 6.199 1.511 9.301-12.643 2.649-12.085 4.161-15.118 8.82-17.685 1.065-.587 1.768-1.07 1.563-1.073-.678-.012-4.546 2.465-5.374 3.44-2.056 2.424-3.535 6.607-5.509 15.585-2.821 12.824-4.973 16.023-8.241 12.246-6.165-7.126-11.838-7.781-17.397-2.008-2.377 2.468-2.942 2.75-4.187 2.083-1.02-.546-.836-1.386.77-3.521 4.568-6.071 7.207-12.991 5.75-15.072-.526-.75-.71-.777-3.789-.563-6.079.424-9.472-2.626-11.821-10.626-4.687-15.968-5.073-18.437-3.29-21.032 11.956-17.406 16.911-54.695 10.809-81.332-3.566-15.564-7.783-18.832-20.288-15.722-14.343 3.569-32.143 12.961-45.109 23.803-4.983 4.167-5.185 4.199-13.394 2.142-8.278-2.074-9.184-2.574-11.227-6.194-4.818-8.536-15.74-17.068-21.849-17.068-2.169 0-2.159.613.073 4.885 4.693 8.978 3.826 9.64-6.092 4.651-15.964-8.028-21.244-13.223-23.846-23.457-.913-3.59-1.859-3.902-4.203-1.386m113.21 47.541c-3.644 1.498-5.822 3.49-7.531 6.886-2.333 4.638-1.773 6.33 4.368 13.206 1.773 1.985 3.889 4.662 4.702 5.949 2.711 4.293 6.386 6.906 9.018 6.413 3.418-.642 2.575-4.115-1.809-7.459-2.567-1.958-2.334-2.986 1.221-5.4 5.897-4.005 4.081-7.471-4.689-8.952-3.478-.587-3.571-.888-1.516-4.895 2.965-5.781 1.555-7.934-3.764-5.748m2.88 2.486c.221 1.547-4.332 6.991-5.685 6.798-1.661-.237-1.003-3.218 1.221-5.532 2.123-2.209 4.242-2.811 4.464-1.266m21.822 9.552c-.362.362-.309 4.44.056 4.214.461-.285.789-2.861.473-3.715-.153-.413-.391-.637-.529-.499m-17.077.813c5.632 1.577 2.292 6.277-5.19 7.303-4.276.586-8.551-6.593-4.458-7.49l1.189-.26c1.102-.238 7.152.082 8.459.447M92.814 89.709c-1.359 1.359-.971 2.379 2.587 6.799 2.132 2.648 2.092 2.724-2.166 4.113-8.133 2.655-9.418 6.743-3.08 9.798 3.588 1.729 3.831 2.233 2.079 4.303-3.845 4.542-4.221 7.733-.997 8.441 2.977.654 6.454-2.812 8.689-8.663.519-1.358 1.903-3.927 3.076-5.709 5.161-7.844 5.627-11.413 2.027-15.513-3.082-3.51-10.196-5.588-12.215-3.569m5.727 2.492c2.654 1.259 4.181 4.696 1.883 4.236-2.193-.438-5.838-3.769-5.021-4.586.4-.4 1.914-.231 3.138.35m184.699 7.7c.815.717.877.872.349.881-.869.015-1.876-.559-2.127-1.213-.32-.833.662-.65 1.778.332m-182.058 2.05c3.454 2.631-1.662 6.927-7.745 6.503-9.764-.681-4.476-6.472 6.299-6.899.484-.019 1.135.159 1.446.396m129.479.268c4.876.366 10.59 1.809 13.951 3.523.719.367 2.455.985 3.858 1.374s2.926.953 3.384 1.253c1.473.965.887.248-.665-.813-4.102-2.806-15.159-5.761-21.15-5.654l-2.902.053zm26.608 10.38c.657.679 1.275 1.234 1.371 1.234s-.361-.555-1.019-1.234-1.275-1.233-1.372-1.233.362.555 1.02 1.233m-116.554-.269c.927.073 2.354.072 3.172-.002s.06-.133-1.684-.132c-1.745.001-2.414.061-1.488.134m-5.913.77c-3.981 1.471-8.558 3.492-10.101 4.46-2.071 1.299-6.62 4.829-6.631 5.145-.018.509 4.215-1.619 6.191-3.112 3.85-2.909 9.557-5.84 13.008-6.681 1.628-.397 1.668-.43.528-.446-.678-.01-2.026.275-2.995.634m17.445 1.243c0 .097.475.422 1.057.723.581.301 1.057.468 1.057.371s-.476-.423-1.057-.723c-.582-.301-1.057-.468-1.057-.371m-56.496 2.161c.206.62-1.214 2.163-2.357 2.561-1.437.501-1.419-.217.049-1.888 1.058-1.205 2.036-1.49 2.308-.673m61.077.611c0 .06.516.576 1.146 1.145l1.145 1.035-1.035-1.145c-.965-1.068-1.256-1.308-1.256-1.035m107.946 4.94c1.203 1.821 2.245 3.26 2.317 3.198.165-.14-3.745-6.039-4.181-6.309-.177-.109.662 1.291 1.864 3.111m-104.693-.951c.717.977 1.704 2.476 2.193 3.332s.891 1.37.894 1.144c.005-.505-3.4-5.64-3.975-5.996-.229-.141.171.543.888 1.52m-44.662 4.711c-.895 1.163-1.548 2.115-1.451 2.115s.908-.952 1.803-2.115 1.548-2.115 1.451-2.115-.909.952-1.803 2.115m151.734.055c-.009.128.473 1.317 1.071 2.643 4.918 10.913 5.946 19.542 3.036 25.496-1.481 3.029-2.005 2.49-5.536-5.692-3.577-8.287-7.208-13.124-12.42-16.549-14.219-9.341-32.611-5.183-39.986 9.042-2.569 4.956-4.376 13.413-3.788 17.728.639 4.683 1.663 8.855 2.631 10.718.58 1.118 1.055 2.386 1.056 2.82.002 1.06 1.268 3.078 1.932 3.078.71 0 .696-.061-.499-2.302-.994-1.861-1.251-2.836-2.104-7.959-.475-2.855-.484-8.447-.019-11.765.191-1.357.481-3.685.647-5.174 1.226-11.036 11.715-19.542 24.007-19.47 13.716.08 24.357 9.546 28.508 25.361.205.782.688 1.76 1.072 2.173.385.412.804 1.165.931 1.672.517 2.062 3.592-.677 4.513-4.02 1.957-7.103 1.449-12.865-1.863-21.107-1.413-3.515-3.155-7.172-3.189-6.693m-103.604 1.178c0 .194.227.749.504 1.234s.504.722.504.529c0-.194-.227-.749-.504-1.234-.277-.484-.504-.722-.504-.529m-51.953 4.67c-1.885 3.368-3.883 7.831-3.621 8.092.072.073.561-.945 1.086-2.262.876-2.198 1.604-3.618 3.981-7.768.472-.824.772-1.498.668-1.498-.105 0-1.056 1.546-2.114 3.436m54.803 2.379c-.001.194.212.907.473 1.586.262.678.48.995.486.705s-.207-1.005-.473-1.586-.485-.899-.486-.705m35.635 1.938c0 .872.069 1.229.153.793a5 5 0 0 0 0-1.586c-.084-.436-.153-.079-.153.793m-34.584 1.41c0 .291.137.846.303 1.233.191.445.303.51.303.177 0-.291-.136-.846-.303-1.234-.191-.444-.303-.509-.303-.176m34.225 1.586c.004.775.076 1.051.16.612s.081-1.072-.007-1.409-.157.022-.153.797m-.202 6.872c.214 4.632.71 9.466.741 7.225.01-.776-.194-3.63-.454-6.344l-.474-4.934zM169.557 147c-.023.313.122 1.423.323 2.467.758 3.951 1.026 13.67.499 18.133-.925 7.84-.627 9.326 2.017 10.038 1.702.458 3.121.057 5.248-1.484 3.313-2.4 5.45-3.11 9.493-3.155 2.035-.023 4.731-.162 5.991-.308 1.452-.169.226-.213-3.348-.119-7.33.192-6.988.115-11.443 2.576-7.338 4.054-8.681 2.806-7.576-7.042.634-5.654.386-13.985-.556-18.659-.334-1.659-.626-2.759-.648-2.447m184.894 7.348c3.534.325 5.108 1.447 6.824 4.866 2.097 4.177 2.721 4.456 5.306 2.38a36 36 0 0 1 3.287-2.287c.969-.584 1.635-1.064 1.48-1.066-.506-.006-2.148.97-4.099 2.436-2.888 2.169-3.643 1.952-5.415-1.558-1.75-3.466-4.378-5.148-7.902-5.059l-2.038.052zm-152.071 1.599c.004.775.076 1.051.16.613.084-.439.081-1.073-.007-1.41s-.157.022-.153.797m60.175 2.635c0 1.223-.298 3.271-.662 4.552-3.385 11.895-3.222 12.413 2.777 8.814 2.81-1.685 2.764-2.32-.086-1.193-1.069.424-1.124-.822-.14-3.216 1.033-2.516 1.343-5.771.431-4.523-.695.949-.783.763-1.439-3.016-.701-4.043-.881-4.332-.881-1.418m-59.874-.549c-.053.937.75 5.396.894 4.963.064-.194-.102-1.542-.37-2.996-.267-1.454-.503-2.339-.524-1.967m146.101 5.839c-1.375 1.207-2.21 3.612-1.861 5.359.99 4.948 7.963 2.686 7.968-2.586.002-3.504-3.476-5.083-6.107-2.773m-144.157 4.317c.307 2.423-.031 3.325-1.547 4.125-.724.382-1.189.702-1.034.71.481.027 2.213-.967 2.693-1.545.542-.654.568-2.841.047-4.078-.303-.721-.332-.578-.159.788m165.243-1.157c-2.563 1.06-4.057 6.013-2.375 7.872 1.303 1.44 4.648.272 6.34-2.213 2.14-3.145-.597-7.052-3.965-5.659m-101.586 3.784c.339.088.894.088 1.233 0 .34-.089.062-.162-.616-.162-.679 0-.956.073-.617.162m2.731.462c1.205.385 2.132.385 1.234 0-.388-.167-1.022-.299-1.41-.293-.567.008-.532.066.176.293m-88.857 6.074c-1.998.337-7.249 2.95-7.877 3.921-2.548 3.933-1.122 7.786 3.782 10.219 8.027 3.982 9.051 7.799 3.063 11.42-7.581 4.585-17.063 4.054-20.608-1.153-1.752-2.573-3.085-2.975-4.565-1.377-1.823 1.966-1.335 3.173 2.538 6.275 4.942 3.958 8.335 8.411 13.189 17.308 2.023 3.708 7.998 9.857 10.877 11.194 13.368 6.208 24.944-1.724 32.798-22.472 2.941-7.771 4.966-11.368 7.315-12.996 2.509-1.738 2.633-4.02.335-6.137-2.279-2.099-4.657-1.268-6.217 2.172-3.116 6.871-14.332 9.355-23.179 5.132-5.675-2.709-5.838-5.308-.581-9.24 5.313-3.973 6.798-5.875 6.798-8.707 0-4.028-2.131-5.955-5.945-5.378-1.589.24-2.949.201-4.91-.142-2.78-.486-4.118-.493-6.813-.039m15.569 3.47c1.399 2.614.029 5.61-3.791 8.292-1.316.923-3.292 2.521-4.392 3.551-2.467 2.309-3.05 2.34-6.004.318-1.248-.855-3.326-2.033-4.616-2.618-2.9-1.316-4.12-2.552-4.12-4.177 0-2.84 2.698-3.539 7.753-2.007 2.541.77 4.812.608 7.646-.547 3.266-1.331 3.787-1.619 4.841-2.673 1.066-1.066 2.157-1.122 2.683-.139m185.707 3.763c-2.419 1.207-3.129 4.687-1.212 5.943 1.864 1.222 5.093-1.134 5.093-3.716 0-2.212-1.819-3.256-3.881-2.227m-33.138 9.169c-5.574 2.713-8.277 6.878-5.753 8.864 1.214.954 2.507.922 4.788-.12 2.714-1.239 5.869-1.969 8.511-1.969 3.746 0 4.322-1.754 1.52-4.626-2.545-2.608-6.297-3.497-9.066-2.149m-128.821 1.337c.941.942.584 2.049-.909 2.822-1.323.684-1.838.349-1.564-1.016.391-1.958 1.506-2.772 2.473-1.806m-30.585 6.421c6.994 4.124 13.763 4.485 21.271 1.136 5.617-2.506 5.988-2.11 3.729 3.975-.663 1.785-1.791 4.831-2.507 6.769-5.011 13.568-12.597 21.548-20.887 21.973-9.332.479-14.53-3.482-22.166-16.893-6.019-10.569-6.026-10.315.304-10.64 6.336-.325 10.498-2.015 14.661-5.952 2.167-2.05 2.685-2.084 5.595-.368M67.401 306.136c-.242.098-.441.768-.441 1.49 0 .981-.39 1.866-1.552 3.516-2.964 4.21-3.271 8.174-1.051 13.584.563 1.373 1.064 3.671 1.39 6.375.931 7.718 1.743 9.538 6.07 13.606 4.15 3.902 8.016 5.66 12.222 5.558 1.731-.041 1.708-.054-.908-.495-8.41-1.42-15.744-10.03-16.561-19.444-.272-3.133-.534-4.203-1.612-6.59-2.555-5.66-1.929-9.619 2.206-13.954 2.39-2.507 2.525-4.569.237-3.646"/>
    <path fill="#cac7d5" d="M234.361 136.737c-6.904.652-13.828 5.288-16.377 10.967-1.796 4.004-.381 3.516 5.283-1.82 15.765-14.851 38.235 8.362 28.299 29.235-5.317 11.168-23.805 12.873-32.052 2.955-3.395-4.082-4.031-5.132-4.722-7.797-.679-2.616-1.906-4.782-1.921-3.391-.036 3.321 3.892 10.846 7.838 15.018 5.93 6.269 22.461 4.822 30.957-2.709.84-.745 1.802-1.206 2.842-1.362l1.572-.235 1.99-3.822c4.693-9.01 4.461-16.293-.803-25.205-5.154-8.726-12.983-12.771-22.906-11.834m9.399 2.635c6.199 1.7 11.127 6.603 14.656 14.583 1.784 4.032 1.069 11.651-1.584 16.882-1.761 3.471-1.932 3.071-1.891-4.405.08-14.422-6.133-23.458-18.018-26.204-3.655-.845-3.794-1.232-.601-1.669 2.52-.344 3.679-.218 7.438.813m-108.43 8.617c-10.952 2.929-18.673 15.909-16.916 28.437.597 4.254 1.422 6.288 4.022 9.917 1.216 1.696 2.4 3.441 2.631 3.877.299.564.748.798 1.553.809.623.008 1.768.264 2.543.567 2.698 1.057 11.994 3.285 13.72 3.29 6.25.015 17.385-4.596 17.953-7.435.331-1.657.09-1.636-1.917.168-8.112 7.294-21.56 7.63-26.169.654-7.798-11.801-7.11-23.94 1.819-32.105 4.375-4 6.323-4.973 11.406-5.694 3.035-.43 3.506-.764 2.243-1.592-2.391-1.566-8.728-2.005-12.888-.893m88.91 1.174c-1.608 1.752-1.284 5.262.612 6.612 3.394 2.417 7.38-.894 5.686-4.723-1.151-2.601-4.673-3.658-6.298-1.889m-83.394.441c.06.193-.894.938-2.118 1.654-11.656 6.816-15.524 20.215-9.614 33.303 2.807 6.216.375 7.37-3.828 1.817-3.526-4.659-4.229-5.984-4.955-9.343-2.215-10.243 2.056-20.131 10.988-25.437 3.421-2.033 9.148-3.231 9.527-1.994m88.141 1.09c1.62 1.813.618 4.725-1.627 4.725-2.657 0-3.892-3.237-1.968-5.16 1.084-1.084 2.378-.928 3.595.435m-91.022 7.331c-1.25.545-1.93 1.839-1.93 3.675 0 3.343 4.076 5.204 6.371 2.909 3.1-3.101-.428-8.332-4.441-6.584m3.683 1.846c2.267 2.881-.996 6.21-3.567 3.639-.893-.893-1.034-1.255-.849-2.179.491-2.459 2.983-3.282 4.416-1.46m178.775 53.63c-.608 2.945-.525 4.916.314 7.4.902 2.67.948 2.684.745.225-.09-1.077.025-3.122.255-4.545.352-2.182.334-2.787-.113-3.858-.687-1.643-.703-1.633-1.201.778m-104.855 1.257c-.302.46-.954 1.835-1.45 3.056-1.588 3.907-.957 3.147 1.058-1.275 1.229-2.696 1.349-3.242.392-1.781m-45.884 8.149c1.79 3.29 4.016 6.384 5.835 8.106 1.752 1.659 1.33.789-1.283-2.643-.811-1.066-1.964-2.817-2.561-3.891-.598-1.075-1.592-2.423-2.21-2.996l-1.122-1.042zm197.457 8.129c-1.297.85-1.317.898-1.285 3.064.092 6.107-4.854 11.838-8.562 9.921-.865-.448-1.635-.525-3.456-.345-3.372.332-8.449-.368-12.428-1.714-1.89-.64-3.436-1.121-3.436-1.07s.793.601 1.762 1.223c.969.621 1.762 1.269 1.762 1.439 0 .32-.224.384-3.604 1.037-1.704.329-2.264.645-3.593 2.032l-1.574 1.643-2.751.134c-3.371.165-3.488.255-3.726 2.875-.346 3.81-1.755 6.007-8.004 12.475-3.132 3.243-8.289 7.616-8.98 7.616-.11 0-1.164.674-2.343 1.497-3.237 2.262-10.499 6.256-11.375 6.256-.153 0-1.652.914-3.331 2.032s-3.926 2.331-4.992 2.696c-1.066.364-3.207 1.301-4.758 2.08-2.63 1.322-3.032 1.42-5.991 1.46-2.385.033-3.566.224-4.758.77-2.583 1.182-2.763 1.203-5.316.623-3.816-.868-5.364-3.81-5.827-11.071-.755-11.861 1.52-15.304 15.725-23.799 4.445-2.658 6.837-4.371 6.53-4.678-.364-.363-7.728-.023-10.373.479-2.865.545-3.658.447-6.047-.747-1.6-.799-3.869-1.299-7.908-1.743-10.054-1.105-10.131-2.009-.524-6.106 3.583-1.528 7.373-3.287 8.42-3.908a88 88 0 0 1 4.318-2.345c1.326-.668 2.412-1.301 2.412-1.407s-.119-.125-.265-.042c-.145.082-.898.434-1.674.782s-2.955 1.496-4.845 2.551-4.384 2.213-5.543 2.574c-1.16.361-2.786.96-3.614 1.331-5.295 2.375-7.329 3.163-8.73 3.382-2.849.445-2.963.509-2.272 1.273 1.002 1.107 3.227 1.699 9.85 2.622 8.17 1.139 9.048 1.387 10.747 3.036 2.36 2.29 2.289 2.69-1.103 6.227-5.076 5.292-6.098 8.459-6.111 18.932-.011 8.931 1.323 15.23 4.167 19.677 1.674 2.616 2.67 2.98 6.013 2.193 2.379-.561 2.709-.565 4.226-.049 2.135.724 2.602.705 4.277-.176 2.103-1.105 5.716-2.438 6.603-2.436 1.053.003 12.863-5.626 20.168-9.612 7.698-4.2 10.228-5.628 10.397-5.869.096-.138 2.6-2.202 5.563-4.585 4.82-3.878 9.68-8.624 10.777-10.526.22-.381 1.061-1.634 1.868-2.786.839-1.195 1.801-3.187 2.243-4.641.881-2.902 1.251-3.24 4.543-4.15 1.806-.499 2.673-1.005 4.292-2.503 2.499-2.314 6.241-3.587 11.947-4.066 1.145-.096 1.067.879-.305 3.802-.546 1.163-1.208 2.67-1.472 3.348-.603 1.551-11.564 18.237-13.515 20.575-10.48 12.558-14.608 16.117-26.612 22.94-8.568 4.87-10.535 5.762-32.02 14.523-3.092 1.261-3.962 2.393-3.961 5.161 0 1.197-.562 5.268-1.249 9.048-.686 3.78-1.717 9.441-2.29 12.581-1.882 10.306-2.797 12.258-7.409 15.807-21.07 16.213-73.788 23.575-118.514 16.552-13.049-2.05-16.722-3.401-18.2-6.694-1.367-3.045-1.232-2.993-12.732-4.957-6.535-1.117-7.464-1.041-12.592 1.02-6.358 2.555-7.932 2.876-13.975 2.844-15.609-.082-27.174-10.681-23.58-21.61.089-.271-.463-1.54-1.227-2.82-1.842-3.085-2.414-4.936-2.69-8.703-.169-2.293-.477-3.657-1.143-5.065-1.138-2.4-1.417-1.84-.451.907 1.081 3.076 1.008 7.496-.161 9.801-1.677 3.305-1.111 7.522 1.783 13.284 7.684 15.3 26.217 20.798 42.516 12.612 4.401-2.21 4.796-2.236 12.905-.848 8.945 1.532 9.342 1.691 10.173 4.076 1.45 4.159 5.1 5.618 19.839 7.932 52.665 8.266 117.825-4.302 124.365-23.988.835-2.514 5.241-25.944 5.892-31.334.277-2.292 1.41-3.393 4.559-4.429 12.227-4.022 29.085-11.929 38.845-18.219 12.602-8.121 26.165-24.118 34.459-40.643.535-1.066 2.663-4.476 4.73-7.577 4.174-6.265 5.011-8.286 4.999-12.068-.005-1.402.199-2.828.483-3.374.27-.52.46-.937.423-.925-.037.011-.66.409-1.384.883m-312.236 9.811c-4.954 1.333-9.206 6.961-9.213 12.193-.004 3.376-.132 3.012 10.456 29.603 4.746 11.921 8.829 22.348 9.072 23.172.47 1.592.715 1.78 1.339 1.028.295-.356.051-1.28-1-3.789-2.502-5.968-16.474-41.302-17.594-44.492-2.06-5.866-1.332-9.512 2.703-13.548 3.283-3.282 6.052-3.802 15.411-2.891 1.939.189 7.093.664 11.454 1.056s10.388.948 13.392 1.235c17.91 1.71 25.08 2.279 28.453 2.257l3.794-.024-1.762-.533c-.969-.293-3.963-1.319-6.653-2.28-4.397-1.571-7.125-2.155-4.034-.863 4.618 1.929 2.043 2.215-10.041 1.114-5.657-.515-14.647-1.329-19.977-1.808-5.331-.48-11.972-1.109-14.759-1.398-6.032-.627-8.803-.635-11.041-.032m79.016 8.803c0 .119.716 1.14 1.592 2.267s2.343 3.466 3.26 5.196c2.071 3.906 1.958 3.891 7.114.988 7.396-4.164 7.393-4.154 1.426-5.524-8.098-1.858-11.822-2.725-12.599-2.932-.436-.117-.793-.114-.793.005m10.546 3.428c4.567 1.168 4.506 2.06-.323 4.668-3.002 1.622-3.106 1.575-4.847-2.183-1.842-3.978-1.434-4.174 5.17-2.485m74.298 10.036c-.113.114-3.51.35-7.547.524-10.998.476-11.316.868-7.086 8.719 1.436 2.666 1.801 3.702 1.947 5.52l.18 2.238-1.401.715c-1.645.839-3.05 2.366-5.321 5.784l-1.652 2.487.066 3.027c.134 6.232 3.315 24.883 4.434 26.003.865.865 2.672-1.115 7.259-7.953 13.679-20.395 20.052-31.921 20.669-37.383.141-1.249.555-3.137.919-4.196 1.308-3.803.935-4.462-2.947-5.203-2.538-.484-9.123-.679-9.52-.282m-52.598 2.189c-12.929 1.288-13.407 15.208-1.435 41.778 5.446 12.086 6.336 12.603 8.679 5.036.789-2.545 2.791-8.729 4.45-13.742 3.358-10.146 3.385-10.367 1.692-14.194-1.001-2.263-2.048-3.568-3.232-4.025-1.928-.745-1.528-3.384 1.308-8.629 1.93-3.57 2.274-5.497 1.093-6.129-.587-.314-9.665-.383-12.555-.095m58.23 2.534c3.412 1.553 3.584 2.82.853 6.291-.948 1.204-2.519 3.993-2.519 4.47 0 .116.683.109 1.518-.016 2.973-.446 2.885.854-.465 6.889-2.31 4.161-11.807 19.277-14.259 22.694a186 186 0 0 0-3.176 4.579c-3.185 4.798-3.888 3.81-5.81-8.161-2.224-13.856-2.196-14.602.7-18.514 2.197-2.968 2.942-3.354 5.305-2.749 1.857.476 2.795.173 2.795-.904 0-.775-3.123-8.591-4.111-10.29-2.916-5.011-1.511-5.731 10.807-5.539 5.736.09 5.85.107 8.362 1.25m-47.81.017c1.093.585.843 1.453-2.154 7.491-1.56 3.142-2.932 6.332-3.051 7.089-.241 1.549-.311 1.539 2.742.368 2.435-.933 3.356-.552 4.453 1.843 1.78 3.89 1.921 3.16-3.725 19.295-4.315 12.329-4.223 12.283-8.207 4.078-7.996-16.472-11.66-32.776-7.366-32.776.185 0 .444-.594.576-1.321.535-2.957 1.233-3.595 5.442-4.977 3.871-1.272 9.869-1.851 11.29-1.09m-63.596 32.09c-.516.406-2.108 2.51-3.539 4.676-4.627 7.009-5.29 7.243-10.069 3.558-5.161-3.98-7.093-1.016-2.333 3.578 5.664 5.465 8.7 6.954 10.715 5.258 1.078-.907 7.816-10.455 9.01-12.767 1.734-3.359-1.013-6.483-3.784-4.303m2.627.685c2.226 1.192-6.895 16.199-9.846 16.199-1.692 0-10.559-7.396-10.193-8.503.334-1.013 1.58-.626 4.092 1.27 4.52 3.413 5.671 2.928 10.582-4.458 3.062-4.604 3.888-5.298 5.365-4.508m116.75 1.391c-5.349 1.134-9.191 5.613-9.557 11.139-.293 4.423.868 5.24 1.839 1.293 2.003-8.143 10.986-11.832 17.588-7.222 2.966 2.071 3.401 2.201 3.401 1.017 0-3.727-7.799-7.387-13.271-6.227m-.669 2.781c-1.54.75-3.431 1.872-4.202 2.492-1.767 1.421-2.112.768-.488-.923 1.657-1.725 4.037-2.898 5.924-2.917l1.567-.017zm1.741 8.658c-.279.726.471 1.623 1.142 1.365.703-.27.465-1.659-.31-1.807-.34-.065-.714.134-.832.442"/>
  </g>
</svg>
